<?xml version="1.0" encoding="utf-8"?>
<!-- Generator: Adobe Illustrator 25.0.1, SVG Export Plug-In . SVG Version: 6.00 Build 0)  -->
<svg version="1.1"
	 id="svg5233" sodipodi:docname="wordclock_faceplate.svg" xmlns:cc="http://creativecommons.org/ns#" xmlns:dc="http://purl.org/dc/elements/1.1/" xmlns:inkscape="http://www.inkscape.org/namespaces/inkscape" xmlns:rdf="http://www.w3.org/1999/02/22-rdf-syntax-ns#" xmlns:sodipodi="http://sodipodi.sourceforge.net/DTD/sodipodi-0.dtd" xmlns:svg="http://www.w3.org/2000/svg"
	 xmlns="http://www.w3.org/2000/svg" xmlns:xlink="http://www.w3.org/1999/xlink" x="0px" y="0px" viewBox="0 0 263.6 263.6"
	 style="enable-background:new 0 0 263.6 263.6;" xml:space="preserve">
<style type="text/css">
	.st0{fill:none;stroke:#0000FF;stroke-width:2.833000e-02;stroke-linecap:round;stroke-linejoin:round;}
	.st1{fill:none;stroke:#0000FF;stroke-width:2.833000e-02;stroke-linecap:round;stroke-linejoin:round;stroke-miterlimit:384.3661;}
</style>
<path id="path5046" class="st0" d="M176.5,177.6c0.1-0.2,0.1-0.5-0.1-0.7c-1.8-2.4-3.6-4.9-5.4-7.3c-0.2-0.2-0.2-0.5,0-0.8
	c1.6-2.2,3.1-4.4,4.7-6.6c0.1-0.2,0.2-0.5,0-0.7c-0.1-0.2-0.3-0.4-0.6-0.4c-0.3,0-0.7,0-1,0c-0.2,0-0.4,0.1-0.5,0.3
	c-1,1.3-1.9,2.7-2.9,4c-0.3,0.4-0.6,0.8-0.8,1.2c-0.1,0.2-0.3,0.3-0.6,0.3c-0.2,0-0.4-0.1-0.6-0.3c-0.2-0.3-0.5-0.7-0.8-1
	c-1.1-1.4-2.1-2.8-3.2-4.2c-0.1-0.2-0.3-0.3-0.5-0.3c-0.3,0-0.5,0-0.8,0c-0.3,0-0.5,0.1-0.6,0.4c-0.1,0.2-0.1,0.5,0.1,0.7
	c1.6,2.2,3.2,4.3,4.8,6.5c0.2,0.2,0.2,0.5,0,0.8c-1.8,2.5-3.5,5-5.3,7.4c-0.1,0.2-0.2,0.5-0.1,0.7c0.1,0.2,0.3,0.4,0.6,0.4
	c0.4,0,0.7,0,1.1,0c0.2,0,0.4-0.1,0.5-0.3c1.3-1.9,2.7-3.8,4-5.7c0.1-0.1,0.1-0.2,0.2-0.3c0.1-0.2,0.3-0.3,0.6-0.3
	c0.2,0,0.4,0.1,0.6,0.3c0.1,0.2,0.2,0.3,0.2,0.4c0,0,0,0,0,0c1.3,1.9,2.7,3.7,4,5.6c0.1,0.2,0.3,0.3,0.5,0.3c0.3,0,0.7,0,1,0
	C176.2,178,176.4,177.8,176.5,177.6"/>
<path id="path5048" class="st0" d="M70.5,120.5c-0.3,0.1-0.7,0.2-1,0.5c-0.3,0.2-0.7,0.6-1.1,1.1c-0.4,0.5-1,1.3-1.6,2.3
	c-0.7,1.1-1.4,2.1-2,3.2c-0.1,0.2-0.3,0.3-0.6,0.3c-0.4,0-0.8,0-1.2,0c-0.3,0-0.5-0.1-0.6-0.3c-0.1-0.2-0.1-0.5,0-0.7
	c0.8-1.2,1.5-2.4,2.3-3.5c0.6-0.9,1.2-1.6,1.8-2.2c0,0,0,0,0,0c0.2-0.2,0.3-0.4,0.2-0.6c0-0.2-0.2-0.4-0.4-0.5
	c-0.9-0.3-1.5-0.7-2-1.2c-0.8-0.8-1.2-1.8-1.2-3c0-0.9,0.2-1.8,0.7-2.5c0.5-0.8,1.1-1.3,1.9-1.6c0.8-0.3,1.9-0.5,3.4-0.5
	c2.3,0,4.5,0,6.8,0c0.4,0,0.7,0.3,0.7,0.7c0,5.2,0,10.3,0,15.5c0,0.4-0.3,0.7-0.7,0.7c-0.3,0-0.6,0-0.9,0c-0.4,0-0.7-0.3-0.7-0.7
	c0-2.3,0-4.5,0-6.8c0-0.6,0-1.3,0-1.9c0-1.6,0-3.3,0-4.9c0-0.4-0.2-0.6-0.6-0.6c-1.6,0-3.1,0-4.7,0c-1.2,0-2.2,0.3-2.7,0.8
	c-0.6,0.5-0.9,1.2-0.9,2c0,0.5,0.1,1,0.4,1.5c0.3,0.5,0.7,0.8,1.3,1c0.6,0.2,1.4,0.3,2.4,0.3c0.3,0,0.5,0,0.8,0
	c0.4,0,0.6,0.2,0.6,0.6c0,0.3,0,0.5,0,0.8C70.9,120.2,70.8,120.4,70.5,120.5"/>
<path id="path5050" class="st0" d="M95.5,170.6c-0.3,0.1-0.7,0.2-1,0.5c-0.3,0.2-0.7,0.6-1.1,1.1c-0.4,0.5-1,1.3-1.6,2.3
	c-0.7,1.1-1.4,2.1-2,3.2c-0.1,0.2-0.3,0.3-0.6,0.3c-0.4,0-0.8,0-1.2,0c-0.3,0-0.5-0.1-0.6-0.3c-0.1-0.2-0.1-0.5,0-0.7
	c0.8-1.2,1.5-2.4,2.3-3.5c0.6-0.9,1.2-1.6,1.8-2.2c0,0,0,0,0,0c0.2-0.2,0.3-0.4,0.2-0.6c0-0.2-0.2-0.4-0.4-0.5
	c-0.9-0.3-1.5-0.7-2-1.2c-0.8-0.8-1.2-1.8-1.2-3c0-0.9,0.2-1.8,0.7-2.5c0.5-0.8,1.1-1.3,1.9-1.6c0.8-0.3,1.9-0.5,3.4-0.5
	c2.3,0,4.5,0,6.8,0c0.4,0,0.7,0.3,0.7,0.7c0,5.2,0,10.3,0,15.5c0,0.4-0.3,0.7-0.7,0.7c-0.3,0-0.6,0-0.9,0c-0.4,0-0.7-0.3-0.7-0.7
	c0-2.3,0-4.5,0-6.8c0-0.6,0-1.3,0-1.9c0-1.6,0-3.3,0-4.9c0-0.4-0.2-0.6-0.6-0.6c-1.6,0-3.1,0-4.7,0c-1.2,0-2.2,0.3-2.7,0.8
	c-0.6,0.5-0.9,1.2-0.9,2c0,0.5,0.1,1,0.4,1.5c0.3,0.5,0.7,0.8,1.3,1c0.6,0.2,1.4,0.3,2.4,0.3c0.3,0,0.5,0,0.8,0
	c0.4,0,0.6,0.2,0.6,0.6c0,0.3,0,0.5,0,0.8C96,170.3,95.9,170.5,95.5,170.6"/>
<path id="path5052" class="st0" d="M145.6,220.6c-0.3,0.1-0.7,0.2-1,0.5c-0.3,0.2-0.7,0.6-1.1,1.1c-0.4,0.5-1,1.3-1.6,2.3
	c-0.7,1.1-1.4,2.1-2,3.2c-0.1,0.2-0.3,0.3-0.6,0.3c-0.4,0-0.8,0-1.2,0c-0.3,0-0.5-0.1-0.6-0.3c-0.1-0.2-0.1-0.5,0-0.7
	c0.8-1.2,1.5-2.4,2.3-3.5c0.6-0.9,1.2-1.6,1.8-2.2c0,0,0,0,0,0c0.2-0.2,0.3-0.4,0.2-0.6c0-0.2-0.2-0.4-0.4-0.5
	c-0.9-0.3-1.5-0.7-2-1.2c-0.8-0.8-1.2-1.8-1.2-3c0-0.9,0.2-1.8,0.7-2.5c0.5-0.8,1.1-1.3,1.9-1.6c0.8-0.3,1.9-0.5,3.4-0.5
	c2.3,0,4.5,0,6.8,0c0.4,0,0.7,0.3,0.7,0.7c0,5.2,0,10.3,0,15.5c0,0.4-0.3,0.7-0.7,0.7c-0.3,0-0.6,0-0.9,0c-0.4,0-0.7-0.3-0.7-0.7
	c0-2.3,0-4.5,0-6.8c0-0.6,0-1.3,0-1.9c0-1.6,0-3.3,0-4.9c0-0.4-0.2-0.6-0.6-0.6c-1.6,0-3.1,0-4.7,0c-1.2,0-2.2,0.3-2.7,0.8
	c-0.6,0.5-0.9,1.2-0.9,2c0,0.5,0.1,1,0.4,1.5c0.3,0.5,0.7,0.8,1.3,1c0.6,0.2,1.4,0.3,2.4,0.3c0.3,0,0.5,0,0.8-0.1
	c0.4,0,0.6,0.2,0.6,0.6c0,0.3,0,0.6,0,0.8C146.1,220.4,145.9,220.6,145.6,220.6"/>
<path id="path5054" class="st0" d="M220.2,75.9c1.4-0.2,2.6-0.8,3.6-1.9c1.1-1.2,1.6-2.8,1.6-5c0-2.3-0.5-4-1.6-5.1
	c-1.1-1.1-2.5-1.7-4.1-1.7c-1.1,0-2.1,0.3-3,0.8c-0.9,0.6-1.6,1.4-2,2.4c-0.5,1-0.7,2.2-0.7,3.6c0,1.3,0.2,2.5,0.6,3.5
	c0.1,0.3,0.1,0.5-0.2,0.7c-0.2,0.1-0.5,0.3-0.8,0.6c-0.3,0.2-0.7,0.1-0.9-0.2c-0.1-0.3-0.3-0.5-0.4-0.8c-0.4-1.1-0.6-2.3-0.6-3.7
	c0-1.7,0.3-3.2,1-4.5c0.7-1.3,1.6-2.4,2.8-3.1c1.2-0.7,2.6-1.1,4.2-1.1c1.5,0,2.9,0.4,4.2,1.1c1.2,0.7,2.2,1.8,2.9,3.1
	c0.7,1.4,1,2.9,1,4.5c0,1.7-0.3,3.2-1,4.5c-0.7,1.3-1.6,2.4-2.9,3.1c-1.2,0.7-2.6,1.1-4.2,1c-0.6,0.1-0.9-0.8-0.4-1.1
	c0.2-0.1,0.4-0.3,0.6-0.4C220,75.9,220.1,75.9,220.2,75.9"/>
<path id="path5056" class="st0" d="M145.6,70.4c-0.3,0.1-0.7,0.2-1,0.5c-0.3,0.2-0.7,0.6-1.1,1.1c-0.4,0.5-1,1.3-1.6,2.3
	c-0.7,1.1-1.4,2.1-2,3.2c-0.1,0.2-0.3,0.3-0.6,0.3c-0.4,0-0.8,0-1.2,0c-0.3,0-0.5-0.1-0.6-0.3c-0.1-0.2-0.1-0.5,0-0.7
	c0.8-1.2,1.5-2.4,2.3-3.5c0.6-0.9,1.2-1.6,1.8-2.2c0,0,0,0,0,0c0.2-0.2,0.3-0.4,0.2-0.6c0-0.2-0.2-0.4-0.4-0.5
	c-0.9-0.3-1.5-0.7-2-1.2c-0.8-0.8-1.2-1.8-1.2-3c0-0.9,0.2-1.8,0.7-2.5c0.5-0.8,1.1-1.3,1.9-1.6c0.8-0.3,1.9-0.5,3.4-0.5
	c2.3,0,4.5,0,6.8,0c0.4,0,0.7,0.3,0.7,0.7c0,5.2,0,10.3,0,15.5c0,0.4-0.3,0.7-0.7,0.7c-0.3,0-0.6,0-0.9,0c-0.4,0-0.7-0.3-0.7-0.7
	c0-2.3,0-4.5,0-6.8c0-0.6,0-1.3,0-1.9c0-1.6,0-3.3,0-4.9c0-0.4-0.2-0.6-0.6-0.6c-1.6,0-3.1,0-4.7,0c-1.2,0-2.2,0.3-2.7,0.8
	c-0.6,0.5-0.9,1.2-0.9,2c0,0.5,0.1,1,0.4,1.5c0.3,0.5,0.7,0.8,1.3,1c0.6,0.2,1.4,0.3,2.4,0.3c0.3,0,0.5,0,0.8,0
	c0.4,0,0.6,0.2,0.6,0.6c0,0.2,0,0.5,0,0.7C146.1,70.2,145.9,70.3,145.6,70.4"/>
<path id="path5058" class="st0" d="M70.5,70.4c-0.3,0.1-0.7,0.2-1,0.5c-0.3,0.2-0.7,0.6-1.1,1.1c-0.4,0.5-1,1.3-1.6,2.3
	c-0.7,1.1-1.4,2.1-2,3.2c-0.1,0.2-0.3,0.3-0.6,0.3c-0.4,0-0.8,0-1.2,0c-0.3,0-0.5-0.1-0.6-0.3c-0.1-0.2-0.1-0.5,0-0.7
	c0.8-1.2,1.5-2.4,2.3-3.5c0.6-0.9,1.2-1.6,1.8-2.2c0,0,0,0,0,0c0.2-0.2,0.3-0.4,0.2-0.6c0-0.2-0.2-0.4-0.4-0.5
	c-0.9-0.3-1.5-0.7-2-1.2c-0.8-0.8-1.2-1.8-1.2-3c0-0.9,0.2-1.8,0.7-2.5c0.5-0.8,1.1-1.3,1.9-1.6c0.8-0.3,1.9-0.5,3.4-0.5
	c2.3,0,4.5,0,6.8,0c0.4,0,0.7,0.3,0.7,0.7c0,5.2,0,10.3,0,15.5c0,0.4-0.3,0.7-0.7,0.7c-0.3,0-0.6,0-0.9,0c-0.4,0-0.7-0.3-0.7-0.7
	c0-2.3,0-4.5,0-6.8c0-0.6,0-1.3,0-1.9c0-1.6,0-3.3,0-4.9c0-0.4-0.2-0.6-0.6-0.6c-1.6,0-3.1,0-4.7,0c-1.2,0-2.2,0.3-2.7,0.8
	c-0.6,0.5-0.9,1.2-0.9,2c0,0.5,0.1,1,0.4,1.5c0.3,0.5,0.7,0.8,1.3,1c0.6,0.2,1.4,0.3,2.4,0.3c0.3,0,0.5,0.1,0.8,0.1
	c0.4,0,0.6,0.2,0.6,0.6c0,0.2,0,0.4,0,0.7C70.9,70.2,70.8,70.3,70.5,70.4"/>
<path id="path5060" class="st0" d="M192.4,211.2c-0.7,0.2-1.4,0.5-2.1,0.9c-1.2,0.7-2.2,1.8-2.8,3.1c-0.7,1.3-1,2.8-1,4.5
	c0,1.7,0.3,3.2,1,4.6c0.7,1.3,1.7,2.4,2.9,3.1c0.6,0.3,1.3,0.6,2,0.8c0.4,0.1,0.8-0.2,0.8-0.6c0-0.2,0-0.5,0-0.7
	c0-0.3-0.1-0.5-0.4-0.6c-0.9-0.3-1.7-0.8-2.3-1.5c-1.1-1.2-1.6-2.8-1.6-5c0-1.4,0.2-2.6,0.7-3.6c0.5-1,1.1-1.8,2-2.4
	c0.4-0.2,0.8-0.4,1.2-0.6c0.3-0.1,0.4-0.3,0.4-0.6c0-0.2,0-0.5,0-0.7C193.2,211.4,192.8,211.1,192.4,211.2 M195.9,212.5
	c0-0.2,0-0.4,0-0.6c0-0.4,0.4-0.7,0.8-0.6c1.5,0.2,2.7,0.9,3.7,2c1.5,1.6,2.2,3.8,2.2,6.6c0,1.5-0.3,2.9-1,4.2
	c-0.6,1.3-1.6,2.4-2.8,3.1c-0.7,0.4-1.4,0.7-2.1,0.9c-0.4,0.1-0.8-0.2-0.8-0.6c0-0.2,0-0.5,0-0.7c0-0.3,0.1-0.5,0.4-0.6
	c0.9-0.3,1.7-0.8,2.3-1.5c1.1-1.2,1.6-2.8,1.6-4.8c0-2.5-0.6-4.3-1.7-5.4c-0.7-0.6-1.4-1.1-2.3-1.4C196,213,195.9,212.9,195.9,212.5
	"/>
<path id="path5062" class="st0" d="M224.3,127.3c0-0.5,0-0.9,0-1.4c0-4.3,0-8.6,0-12.8c0-0.5,0-0.9,0-1.4c0-0.4,0.2-0.6,0.6-0.6
	c0.3,0,0.6,0,0.9,0c0.4,0,0.7,0.3,0.7,0.7c0,5.2,0,10.3,0,15.5c0,0.4-0.3,0.7-0.7,0.7c-0.3,0-0.6,0-0.9,0
	C224.5,127.9,224.3,127.7,224.3,127.3"/>
<path id="path5064" class="st0" d="M221,111.1c-0.1,0-0.2,0-0.3,0c-1.3,0-2.3,0.1-3,0.2c-1,0.2-1.8,0.6-2.5,1.2
	c-0.9,0.8-1.5,1.7-2,2.9c-0.4,1.2-0.7,2.5-0.7,4c0,1.3,0.1,2.4,0.5,3.4c0.3,1,0.7,1.8,1.1,2.4c0.5,0.6,1,1.2,1.5,1.5
	c0.6,0.4,1.2,0.7,2,0.8c0.8,0.2,1.7,0.3,2.7,0.3c0.2,0,0.4,0,0.5,0c0.4,0,0.6-0.2,0.6-0.6c0-0.2,0-0.5,0-0.7c0-0.4-0.2-0.6-0.6-0.6
	c-0.1,0-0.2,0-0.3,0c-1.1,0-2-0.1-2.6-0.3c-0.6-0.2-1.1-0.5-1.5-0.9c-0.5-0.5-0.9-1.2-1.2-2.1c-0.3-0.9-0.4-2-0.4-3.2
	c0-1.8,0.3-3.1,0.9-4.1c0.6-0.9,1.3-1.6,2.1-1.9c0.6-0.2,1.6-0.3,2.9-0.3c0.1,0,0.2,0,0.2,0c0.4,0,0.6-0.2,0.6-0.6
	c0-0.2,0-0.5,0-0.7C221.7,111.3,221.5,111.1,221,111.1"/>
<path id="path5066" class="st0" d="M198.8,127.3c0-2.1,0-4.1,0-6.2c0-0.7,0-1.3,0-2c0-2,0-4,0-6c0-0.5,0-0.9,0-1.4
	c0-0.4,0.2-0.6,0.6-0.6c0.3,0,0.7,0,1,0c0.4,0,0.6,0.2,0.6,0.6c0,5.2,0,10.4,0,15.6c0,0.4-0.2,0.6-0.6,0.6c-0.3,0-0.7,0-1,0
	C198.9,127.9,198.8,127.7,198.8,127.3"/>
<path id="path5068" class="st0" d="M196.1,121.1c-0.6,0-1.1,0-1.7,0c-2.4,0-4-0.5-4.9-1.5c-0.9-1-1.4-2.2-1.4-3.6
	c0-0.8,0.2-1.6,0.5-2.3c0.3-0.7,0.8-1.2,1.3-1.6c0.6-0.4,1.3-0.7,2.1-0.8c0.6-0.1,1.4-0.2,2.6-0.2c0.5,0,1,0,1.5,0
	c0.4,0,0.6,0.2,0.6,0.6c0,0.3,0,0.5,0,0.8c0,0.4-0.2,0.6-0.6,0.6c-0.6,0-1.1,0-1.7-0.1c-1,0-1.7,0.1-2.1,0.1c-0.6,0.2-1,0.5-1.4,1
	c-0.4,0.5-0.5,1.1-0.5,1.8c0,1,0.3,1.7,0.9,2.3c0.6,0.5,1.6,0.8,3.1,0.8c0.6,0,1.1,0,1.7,0c0.4,0,0.6,0.2,0.6,0.6c0,0.2,0,0.5,0,0.7
	C196.8,120.9,196.6,121.1,196.1,121.1"/>
<path id="path5070" class="st0" d="M43,111.7c0,0.2,0,0.5,0,0.7c0,0.3-0.1,0.5-0.4,0.6c-0.4,0.1-0.8,0.3-1.2,0.6
	c-0.9,0.6-1.6,1.4-2,2.4c-0.5,1-0.7,2.2-0.7,3.6c0,2.2,0.5,3.8,1.6,5c0.7,0.7,1.4,1.2,2.3,1.5c0.3,0.1,0.4,0.3,0.4,0.6
	c0,0.2,0,0.5,0,0.7c0,0.4-0.4,0.7-0.8,0.6c-0.7-0.2-1.3-0.4-2-0.8c-1.3-0.7-2.2-1.7-2.9-3.1c-0.7-1.3-1-2.9-1-4.6
	c0-1.7,0.3-3.2,1-4.5c0.7-1.3,1.6-2.4,2.8-3.1c0.6-0.4,1.3-0.7,2.1-0.9C42.6,110.9,43,111.3,43,111.7 M46.4,111
	c1.4,0.3,2.7,1.1,3.7,2.1c1.5,1.6,2.2,3.8,2.2,6.6c0,1.5-0.3,2.9-1,4.2c-0.6,1.3-1.6,2.4-2.8,3.1c-0.7,0.4-1.4,0.7-2.1,0.9
	c-0.4,0.1-0.8-0.2-0.8-0.6c0-0.2,0-0.5,0-0.7c0-0.4,0.1-0.5,0.5-0.6c0.9-0.3,1.6-0.8,2.3-1.5c1.1-1.2,1.6-2.8,1.6-4.8
	c0-2.5-0.6-4.3-1.7-5.4c-0.7-0.7-1.4-1.1-2.3-1.4c-0.3-0.1-0.4-0.3-0.4-0.6c0-0.2,0-0.5,0-0.7C45.7,111.2,46,110.9,46.4,111"/>
<path id="path5072" class="st0" d="M45.8,52.8c-0.2,0-0.4,0-0.5,0c-1,0-1.9-0.1-2.7-0.3c-0.8-0.2-1.5-0.5-2-0.8
	c-0.6-0.4-1.1-0.9-1.5-1.5c-0.5-0.6-0.8-1.5-1.1-2.4c-0.3-1-0.5-2.1-0.5-3.4c0-1.5,0.2-2.8,0.7-4c0.4-1.2,1.1-2.1,2-2.9
	c0.7-0.6,1.5-1,2.5-1.2c0.7-0.2,1.7-0.2,3-0.2c0.1,0,0.2,0,0.3,0c0.4,0,0.6,0.2,0.6,0.6c0,0.3,0,0.5,0,0.8c0,0.4-0.2,0.6-0.6,0.6
	c-0.1,0-0.2,0-0.3,0c-1.3,0-2.3,0.1-2.9,0.3c-0.8,0.3-1.5,1-2.1,1.9c-0.6,0.9-0.9,2.3-0.9,4.1c0,1.3,0.1,2.3,0.4,3.2
	c0.3,0.9,0.7,1.6,1.2,2.1c0.4,0.4,0.9,0.7,1.5,0.9c0.6,0.2,1.5,0.3,2.6,0.3c0.1,0,0.2,0,0.3,0c0.4,0,0.6,0.2,0.6,0.6
	c0,0.2,0,0.5,0,0.7C46.4,52.6,46.2,52.8,45.8,52.8"/>
<path id="path5074" class="st0" d="M49.1,52.2c0-0.5,0-0.9,0-1.4c0-4.3,0-8.6,0-12.8c0-0.5,0-0.9,0-1.4c0-0.4,0.2-0.6,0.6-0.6
	c0.3,0,0.6,0,1,0c0.4,0,0.7,0.3,0.7,0.7c0,5.2,0,10.3,0,15.5c0,0.4-0.3,0.7-0.7,0.7c-0.3,0-0.6,0-0.9,0
	C49.2,52.8,49.1,52.6,49.1,52.2"/>
<path id="path5076" class="st0" d="M95.1,90.1c0.2,0.5,0.4,1,0.6,1.5c0.6,1.5,1.1,3,1.7,4.5c0.2,0.6,0.4,1.2,0.7,1.8
	c0.6,1.6,1.3,3.3,1.9,4.9c0.5,0,0.9,0,1.4,0c0.2,0,0.4-0.1,0.6-0.3c0.1-0.2,0.2-0.4,0.1-0.6c-2-5.2-4-10.3-5.9-15.5
	c-0.1-0.3-0.3-0.4-0.6-0.4c-0.5,0-1,0-1.5,0c-0.3,0-0.5,0.2-0.6,0.4c-2.1,5.2-4.2,10.3-6.3,15.5c-0.1,0.2-0.1,0.4,0.1,0.6
	c0.1,0.2,0.3,0.3,0.6,0.3c0.5,0,1,0,1.5,0c0.6-1.6,1.3-3.3,1.9-4.9c0.2-0.6,0.4-1.2,0.7-1.8c0.6-1.5,1.1-3,1.7-4.5
	c0.2-0.6,0.4-1.1,0.6-1.5C94.1,89.6,94.9,89.6,95.1,90.1"/>
<path id="path5078" class="st0" d="M220.3,40c0.2,0.5,0.4,1,0.6,1.5c0.6,1.5,1.1,3,1.7,4.5c0.2,0.6,0.4,1.2,0.7,1.8
	c0.6,1.6,1.3,3.3,1.9,4.9c0.5,0,0.9,0,1.4,0c0.2,0,0.4-0.1,0.6-0.3c0.1-0.2,0.2-0.4,0.1-0.6c-2-5.2-4-10.3-5.9-15.5
	c-0.1-0.3-0.3-0.4-0.6-0.4c-0.5,0-1,0-1.5,0c-0.3,0-0.5,0.2-0.6,0.4c-2.1,5.2-4.2,10.3-6.3,15.5c-0.1,0.2-0.1,0.4,0.1,0.6
	c0.1,0.2,0.3,0.3,0.6,0.3c0.5,0,1,0,1.5,0c0.6-1.6,1.3-3.3,1.9-4.9c0.2-0.6,0.4-1.2,0.7-1.8c0.6-1.5,1.1-3,1.7-4.5
	c0.2-0.6,0.4-1.1,0.6-1.5C219.3,39.5,220.1,39.5,220.3,40"/>
<polygon id="polygon5080" class="st1" points="170.6,121 168.8,121 168.8,121.1 168.1,122.8 171.2,122.8 "/>
<polygon id="polygon5082" class="st1" points="95.5,95.9 93.7,95.9 93.6,96 93,97.8 96.1,97.8 "/>
<path id="path5084" class="st0" d="M175,77.8c0.5,0,0.9,0,1.4,0c0.2,0,0.4-0.1,0.6-0.3c0.1-0.2,0.2-0.4,0.1-0.6
	c-2-5.2-4-10.3-5.9-15.5c-0.1-0.3-0.3-0.4-0.6-0.4c-0.5,0-1,0-1.5,0c-0.3,0-0.5,0.2-0.6,0.4c-2.1,5.2-4.2,10.3-6.3,15.5
	c-0.1,0.2-0.1,0.4,0.1,0.6c0.1,0.2,0.3,0.3,0.6,0.3c0.5,0,1,0,1.5,0c0.6-1.6,1.3-3.3,1.9-4.9c0.2-0.6,0.4-1.2,0.7-1.8
	c0.6-1.5,1.1-3,1.7-4.5c0.5-1.4,0.9-2.5,1.2-3.4c0.2,0.9,0.6,2,1.2,3.4c0.6,1.5,1.1,3,1.7,4.5c0.2,0.6,0.4,1.2,0.7,1.8
	C173.8,74.5,174.4,76.2,175,77.8"/>
<path id="path5086" class="st0" d="M50.6,227.4c0-5.2,0-10.3,0-15.5c0-0.4-0.3-0.7-0.7-0.7c-3.6,0-7.2,0-10.8,0
	c-0.4,0-0.7,0.3-0.7,0.7c0,0.2,0,0.4,0,0.6c0,0.4,0.3,0.7,0.7,0.7c2.9,0,5.7,0,8.6,0c0.4,0,0.7,0.3,0.7,0.7c0,1.3,0,2.5,0,3.8
	c0,0.4-0.3,0.7-0.7,0.7c-2.7,0-5.3,0-8,0c-0.4,0-0.7,0.3-0.7,0.7c0,0.2,0,0.4,0,0.6c0,0.4,0.3,0.7,0.7,0.7c2.7,0,5.3,0,8,0
	c0.4,0,0.7,0.3,0.7,0.7c0,1.5,0,2.9,0,4.4c0,0.4-0.3,0.7-0.7,0.7c-3,0-6,0-9,0c-0.4,0-0.7,0.3-0.7,0.7c0,0.2,0,0.4,0,0.6
	c0,0.4,0.3,0.7,0.7,0.7c3.7,0,7.5,0,11.2,0C50.3,228,50.6,227.7,50.6,227.4"/>
<path id="path5088" class="st0" d="M76,227.4c0-5.2,0-10.3,0-15.5c0-0.4-0.3-0.7-0.7-0.7c-0.4,0-0.8,0-1.3,0c-0.2,0-0.4,0.1-0.6,0.3
	c-2.5,3.7-4.9,7.4-7.4,11.1c-0.2,0.2-0.5,0.4-0.8,0.3c-0.3-0.1-0.5-0.3-0.5-0.6c0-3.4,0-6.9,0-10.3c0-0.4-0.3-0.7-0.7-0.7
	c-0.3,0-0.5,0-0.8,0c-0.4,0-0.7,0.3-0.7,0.7c0,5.2,0,10.3,0,15.5c0,0.4,0.3,0.7,0.7,0.7c0.4,0,0.8,0,1.3,0c0.2,0,0.4-0.1,0.6-0.3
	c2.5-3.7,4.9-7.4,7.4-11.1c0.2-0.2,0.5-0.4,0.7-0.3c0.3,0.1,0.5,0.3,0.5,0.6c0,3.4,0,6.9,0,10.3c0,0.4,0.3,0.7,0.7,0.7
	c0.3,0,0.5,0,0.8,0C75.7,228,76,227.7,76,227.4"/>
<path id="path5090" class="st0" d="M95.5,227.4c0-5.2,0-10.3,0-15.5c0-0.4-0.3-0.7-0.7-0.7c-0.3,0-0.6,0-0.9,0
	c-0.4,0-0.7,0.3-0.7,0.7c0,5.2,0,10.3,0,15.5c0,0.4,0.3,0.7,0.7,0.7c0.3,0,0.6,0,0.9,0C95.2,228,95.5,227.7,95.5,227.4"/>
<path id="path5092" class="st0" d="M126.1,227.4c0-5.2,0-10.3,0-15.5c0-0.4-0.3-0.7-0.7-0.7c-0.4,0-0.8,0-1.3,0
	c-0.2,0-0.4,0.1-0.6,0.3c-2.5,3.7-4.9,7.4-7.4,11.1c-0.2,0.2-0.5,0.4-0.8,0.3c-0.3-0.1-0.5-0.3-0.5-0.6c0-3.4,0-6.9,0-10.3
	c0-0.4-0.3-0.7-0.7-0.7c-0.3,0-0.5,0-0.8,0c-0.4,0-0.7,0.3-0.7,0.7c0,5.2,0,10.3,0,15.5c0,0.4,0.3,0.7,0.7,0.7c0.4,0,0.8,0,1.3,0
	c0.2,0,0.4-0.1,0.6-0.3c2.5-3.7,4.9-7.4,7.4-11.1c0.2-0.2,0.5-0.4,0.8-0.3c0.3,0.1,0.5,0.3,0.5,0.6c0,3.4,0,6.9,0,10.3
	c0,0.4,0.3,0.7,0.7,0.7c0.3,0,0.5,0,0.8,0C125.8,228,126.1,227.7,126.1,227.4"/>
<path id="path5094" class="st0" d="M164.5,211.1c-0.3,0-0.6,0-0.9,0c-0.4,0-0.7,0.3-0.7,0.7c0,3,0,6,0,9c0,1.7,0.2,3,0.6,4
	c0.4,1,1.1,1.8,2.1,2.4c1,0.6,2.3,0.9,3.9,0.9c1.6,0,2.9-0.3,3.9-0.8c1-0.5,1.7-1.3,2.1-2.4c0.4-1,0.6-2.4,0.6-4.2c0-3,0-6,0-9
	c0-0.4-0.3-0.7-0.7-0.7c-0.3,0-0.6,0-0.9,0c-0.4,0-0.7,0.3-0.7,0.7c0,3,0,6,0,9c0,1.5-0.1,2.5-0.4,3.2c-0.3,0.7-0.7,1.2-1.4,1.6
	c-0.7,0.4-1.5,0.6-2.4,0.6c-1.6,0-2.8-0.4-3.5-1.1c-0.7-0.7-1-2.2-1-4.3c0-3,0-6,0-9C165.1,211.4,164.8,211.1,164.5,211.1"/>
<path id="path5096" class="st0" d="M225.3,227.4c0-5.2,0-10.3,0-15.5c0-0.4-0.3-0.7-0.7-0.7c-3.3,0-6.7,0-10,0
	c-0.4,0-0.7,0.3-0.7,0.7c0,0.2,0,0.4,0,0.6c0,0.4,0.3,0.7,0.7,0.7c2.6,0,5.2,0,7.8,0c0.4,0,0.7,0.3,0.7,0.7c0,1.3,0,2.6,0,3.9
	c0,0.4-0.3,0.7-0.7,0.7c-2.2,0-4.4,0-6.6,0c-0.4,0-0.7,0.3-0.7,0.7c0,0.2,0,0.4,0,0.6c0,0.4,0.3,0.7,0.7,0.7c2.2,0,4.4,0,6.6,0
	c0.4,0,0.7,0.3,0.7,0.7c0,2.1,0,4.2,0,6.3c0,0.4,0.3,0.7,0.7,0.7c0.3,0,0.6,0,0.9,0C225,228,225.3,227.7,225.3,227.4"/>
<path id="path5098" class="st0" d="M51,202.3c0-5.2,0-10.3,0-15.5c0-0.4-0.3-0.7-0.7-0.7c-0.4,0-0.8,0-1.3,0c-0.2,0-0.4,0.1-0.6,0.3
	c-2.5,3.7-4.9,7.4-7.4,11.1c-0.2,0.2-0.5,0.4-0.8,0.3c-0.3-0.1-0.5-0.3-0.5-0.6c0-3.4,0-6.9,0-10.3c0-0.4-0.3-0.7-0.7-0.7
	c-0.3,0-0.5,0-0.8,0c-0.4,0-0.7,0.3-0.7,0.7c0,5.2,0,10.3,0,15.5c0,0.4,0.3,0.7,0.7,0.7c0.4,0,0.8,0,1.3,0c0.2,0,0.4-0.1,0.6-0.3
	c2.5-3.7,4.9-7.4,7.4-11.1c0.2-0.2,0.5-0.4,0.7-0.3c0.3,0.1,0.5,0.3,0.5,0.6c0,3.4,0,6.9,0,10.3c0,0.4,0.3,0.7,0.7,0.7
	c0.3,0,0.5,0,0.8,0C50.7,203,51,202.7,51,202.3"/>
<path id="path5100" class="st0" d="M75.7,202.3c0-5.2,0-10.3,0-15.5c0-0.4-0.3-0.7-0.7-0.7c-3.6,0-7.2,0-10.8,0
	c-0.4,0-0.7,0.3-0.7,0.7c0,0.2,0,0.4,0,0.6c0,0.4,0.3,0.7,0.7,0.7c2.9,0,5.7,0,8.6,0c0.4,0,0.7,0.3,0.7,0.7c0,1.3,0,2.5,0,3.8
	c0,0.4-0.3,0.7-0.7,0.7c-2.7,0-5.3,0-8,0c-0.4,0-0.7,0.3-0.7,0.7c0,0.2,0,0.4,0,0.6c0,0.4,0.3,0.7,0.7,0.7c2.7,0,5.3,0,8,0
	c0.4,0,0.7,0.3,0.7,0.7c0,1.5,0,2.9,0,4.4c0,0.4-0.3,0.7-0.7,0.7c-3,0-6,0-9,0c-0.4,0-0.7,0.3-0.7,0.7c0,0.2,0,0.4,0,0.6
	c0,0.4,0.3,0.7,0.7,0.7c3.7,0,7.5,0,11.2,0C75.3,203,75.7,202.7,75.7,202.3"/>
<path id="path5102" class="st0" d="M95.8,202.6c2-5.2,4-10.3,6-15.5c0.1-0.2,0.1-0.4-0.1-0.6c-0.1-0.2-0.3-0.3-0.6-0.3
	c-0.3,0-0.6,0-1,0c-0.3,0-0.5,0.2-0.6,0.4c-1.4,3.9-2.8,7.8-4.2,11.8c-0.1,0.2-0.2,0.5-0.3,0.7c-0.1,0.3-0.3,0.5-0.6,0.5
	c-0.3,0-0.5-0.2-0.6-0.4c-0.1-0.2-0.2-0.5-0.3-0.7c-1.5-3.9-2.9-7.9-4.4-11.8c-0.1-0.3-0.3-0.4-0.6-0.4c-0.3,0-0.6,0-0.8,0
	c-0.2,0-0.4,0.1-0.6,0.3c-0.1,0.2-0.2,0.4-0.1,0.6c2,5.2,4,10.3,6.1,15.5c0.1,0.3,0.3,0.4,0.6,0.4c0.5,0,0.9,0,1.4,0
	C95.4,203,95.7,202.8,95.8,202.6"/>
<path id="path5104" class="st0" d="M125.7,202.3c0-5.2,0-10.3,0-15.5c0-0.4-0.3-0.7-0.7-0.7c-3.6,0-7.2,0-10.8,0
	c-0.4,0-0.7,0.3-0.7,0.7c0,0.2,0,0.4,0,0.6c0,0.4,0.3,0.7,0.7,0.7c2.9,0,5.7,0,8.6,0c0.4,0,0.7,0.3,0.7,0.7c0,1.3,0,2.5,0,3.8
	c0,0.4-0.3,0.7-0.7,0.7c-2.7,0-5.3,0-8,0c-0.4,0-0.7,0.3-0.7,0.7c0,0.2,0,0.4,0,0.6c0,0.4,0.3,0.7,0.7,0.7c2.7,0,5.3,0,8,0
	c0.4,0,0.7,0.3,0.7,0.7c0,1.5,0,2.9,0,4.4c0,0.4-0.3,0.7-0.7,0.7c-3,0-6,0-9,0c-0.4,0-0.7,0.3-0.7,0.7c0,0.2,0,0.4,0,0.6
	c0,0.4,0.3,0.7,0.7,0.7c3.7,0,7.5,0,11.2,0C125.4,203,125.7,202.7,125.7,202.3"/>
<path id="path5106" class="st0" d="M149.7,202.3c0-5.2,0-10.3,0-15.5c0-0.4-0.3-0.7-0.7-0.7c-0.3,0-0.6,0-0.9,0
	c-0.4,0-0.7,0.3-0.7,0.7c0,4.5,0,9,0,13.5c0,0.4-0.3,0.7-0.7,0.7c-2.3,0-4.6,0-6.9,0c-0.4,0-0.7,0.3-0.7,0.7c0,0.2,0,0.4,0,0.6
	c0,0.4,0.3,0.7,0.7,0.7c3.1,0,6.1,0,9.2,0C149.4,203,149.7,202.7,149.7,202.3"/>
<path id="path5108" class="st0" d="M175.8,202.3c0-5.2,0-10.3,0-15.5c0-0.4-0.3-0.7-0.7-0.7c-3.6,0-7.2,0-10.8,0
	c-0.4,0-0.7,0.3-0.7,0.7c0,0.2,0,0.4,0,0.6c0,0.4,0.3,0.7,0.7,0.7c2.9,0,5.7,0,8.6,0c0.4,0,0.7,0.3,0.7,0.7c0,1.3,0,2.5,0,3.8
	c0,0.4-0.3,0.7-0.7,0.7c-2.7,0-5.3,0-8,0c-0.4,0-0.7,0.3-0.7,0.7c0,0.2,0,0.4,0,0.6c0,0.4,0.3,0.7,0.7,0.7c2.7,0,5.3,0,8,0
	c0.4,0,0.7,0.3,0.7,0.7c0,1.5,0,2.9,0,4.4c0,0.4-0.3,0.7-0.7,0.7c-3,0-6,0-9,0c-0.4,0-0.7,0.3-0.7,0.7c0,0.2,0,0.4,0,0.6
	c0,0.4,0.3,0.7,0.7,0.7c3.7,0,7.5,0,11.2,0C175.5,203,175.8,202.7,175.8,202.3"/>
<path id="path5110" class="st0" d="M201,202.5c1.4-5.2,2.7-10.3,4.1-15.5c0.1-0.2,0-0.4-0.1-0.6c-0.1-0.2-0.3-0.3-0.5-0.3
	c-0.3,0-0.6,0-0.9,0c-0.3,0-0.6,0.2-0.7,0.5c-0.8,3.5-1.6,7-2.4,10.5c0,0.2-0.1,0.3-0.1,0.5c-0.1,0.3-0.3,0.5-0.6,0.5
	c-0.3,0-0.6-0.2-0.7-0.5c0-0.1,0-0.1-0.1-0.2c-1-3.6-2-7.2-3.1-10.9c-0.1-0.3-0.3-0.5-0.6-0.5c-0.6,0-1.1,0-1.7,0
	c-0.3,0-0.6,0.2-0.6,0.5c-0.8,2.7-1.5,5.3-2.3,8c-0.3,1-0.5,1.9-0.7,2.8c-0.1,0.3-0.3,0.5-0.6,0.5c-0.3,0-0.6-0.2-0.7-0.5
	c0-0.2-0.1-0.3-0.1-0.5c-0.8-3.4-1.7-6.9-2.5-10.3c-0.1-0.3-0.3-0.5-0.6-0.5c-0.3,0-0.6,0-0.8,0c-0.2,0-0.4,0.1-0.5,0.3
	c-0.1,0.2-0.2,0.4-0.1,0.6c1.4,5.2,2.8,10.3,4.2,15.5c0.1,0.3,0.3,0.5,0.6,0.5c0.4,0,0.8,0,1.1,0c0.3,0,0.6-0.2,0.6-0.5
	c1.1-3.9,2.2-7.9,3.3-11.8c0.1-0.3,0.3-0.5,0.6-0.5c0.3,0,0.6,0.2,0.6,0.5c1.1,3.9,2.2,7.9,3.3,11.8c0.1,0.3,0.3,0.5,0.6,0.5
	c0.4,0,0.8,0,1.2,0C200.7,203,201,202.8,201,202.5"/>
<path id="path5112" class="st0" d="M220.7,202.3c0-4.5,0-9,0-13.5c0-0.4,0.3-0.7,0.7-0.7c1.4,0,2.8,0,4.2,0c0.4,0,0.7-0.3,0.7-0.7
	c0-0.2,0-0.4,0-0.6c0-0.4-0.3-0.7-0.7-0.7c-4,0-8,0-12,0c-0.4,0-0.7,0.3-0.7,0.7c0,0.2,0,0.4,0,0.6c0,0.4,0.3,0.7,0.7,0.7
	c1.4,0,2.8,0,4.2,0c0.4,0,0.7,0.3,0.7,0.7c0,4.5,0,9,0,13.5c0,0.4,0.3,0.7,0.7,0.7c0.3,0,0.6,0,0.9,0
	C220.4,203,220.7,202.7,220.7,202.3"/>
<path id="path5114" class="st0" d="M50.6,177c0-5,0-10,0-14.9c0-0.5-0.4-0.9-0.9-0.9c-3.4,0-6.9,0-10.3,0c-0.5,0-0.9,0.4-0.9,0.9
	c0,0,0,0.1,0,0.1c0,0.5,0.4,0.9,0.9,0.9c2.7,0,5.4,0,8.1,0c0.5,0,0.9,0.4,0.9,0.9c0,1.1,0,2.2,0,3.3c0,0.5-0.4,0.9-0.9,0.9
	c-2.5,0-5,0-7.4,0c-0.5,0-0.9,0.4-0.9,0.9c0,0,0,0.1,0,0.1c0,0.5,0.4,0.9,0.9,0.9c2.5,0,5,0,7.4,0c0.5,0,0.9,0.4,0.9,0.9
	c0,1.3,0,2.6,0,3.8c0,0.5-0.4,0.9-0.9,0.9c-2.8,0-5.6,0-8.4,0c-0.5,0-0.9,0.4-0.9,0.9c0,0,0,0.1,0,0.1c0,0.5,0.4,0.9,0.9,0.9
	c3.6,0,7.1,0,10.7,0C50.2,178,50.6,177.5,50.6,177"/>
<path id="path5116" class="st0" d="M75.7,177c0-5,0-10,0-14.9c0-0.5-0.4-0.9-0.9-0.9c-3.4,0-6.9,0-10.3,0c-0.5,0-0.9,0.4-0.9,0.9
	c0,0,0,0.1,0,0.1c0,0.5,0.4,0.9,0.9,0.9c2.7,0,5.4,0,8.1,0c0.5,0,0.9,0.4,0.9,0.9c0,1.1,0,2.2,0,3.3c0,0.5-0.4,0.9-0.9,0.9
	c-2.5,0-5,0-7.4,0c-0.5,0-0.9,0.4-0.9,0.9c0,0,0,0.1,0,0.1c0,0.5,0.4,0.9,0.9,0.9c2.5,0,5,0,7.4,0c0.5,0,0.9,0.4,0.9,0.9
	c0,1.3,0,2.6,0,3.8c0,0.5-0.4,0.9-0.9,0.9c-2.8,0-5.6,0-8.4,0c-0.5,0-0.9,0.4-0.9,0.9c0,0,0,0.1,0,0.1c0,0.5,0.4,0.9,0.9,0.9
	c3.6,0,7.1,0,10.7,0C75.2,178,75.7,177.5,75.7,177"/>
<path id="path5118" class="st0" d="M126,177c0-5,0-10,0-14.9c0-0.5-0.4-0.9-0.9-0.9c-0.1,0-0.2,0-0.4,0c-0.5,0-0.9,0.4-0.9,0.9
	c0,1.7,0,3.4,0,5c0,0.5-0.4,0.9-0.9,0.9c-2.3,0-4.6,0-6.9,0c-0.5,0-0.9-0.4-0.9-0.9c0-1.7,0-3.4,0-5c0-0.5-0.4-0.9-0.9-0.9
	c-0.1,0-0.2,0-0.4,0c-0.5,0-0.9,0.4-0.9,0.9c0,5,0,10,0,14.9c0,0.5,0.4,0.9,0.9,0.9c0.1,0,0.2,0,0.4,0c0.5,0,0.9-0.4,0.9-0.9
	c0-2,0-4,0-6.1c0-0.5,0.4-0.9,0.9-0.9c2.3,0,4.6,0,6.9,0c0.5,0,0.9,0.4,0.9,0.9c0,2,0,4,0,6.1c0,0.5,0.4,0.9,0.9,0.9
	c0.1,0,0.2,0,0.4,0C125.6,178,126,177.5,126,177"/>
<path id="path5120" class="st0" d="M145.6,177c0-4.3,0-8.6,0-13c0-0.5,0.4-0.9,0.9-0.9c1.2,0,2.4,0,3.7,0c0.5,0,0.9-0.4,0.9-0.9
	c0,0,0-0.1,0-0.1c0-0.5-0.4-0.9-0.9-0.9c-3.8,0-7.6,0-11.5,0c-0.5,0-0.9,0.4-0.9,0.9c0,0,0,0.1,0,0.1c0,0.5,0.4,0.9,0.9,0.9
	c1.2,0,2.5,0,3.7,0c0.5,0,0.9,0.4,0.9,0.9c0,4.3,0,8.6,0,13c0,0.5,0.4,0.9,0.9,0.9c0.1,0,0.2,0,0.4,0
	C145.2,178,145.6,177.5,145.6,177"/>
<path id="path5122" class="st0" d="M195.7,177.3c0-5.2,0-10.3,0-15.5c0-0.4-0.3-0.7-0.7-0.7c-0.3,0-0.6,0-0.9,0
	c-0.4,0-0.7,0.3-0.7,0.7c0,5.2,0,10.3,0,15.5c0,0.4,0.3,0.7,0.7,0.7c0.3,0,0.6,0,0.9,0C195.4,178,195.7,177.7,195.7,177.3"/>
<path id="path5124" class="st0" d="M225.7,172.5c-0.3,0-0.5,0-0.8-0.1c-0.3,0-0.6,0.2-0.7,0.5c-0.1,0.6-0.3,1.1-0.6,1.5
	c-0.4,0.5-0.9,1-1.7,1.3c-0.8,0.3-1.6,0.5-2.6,0.5c-0.8,0-1.6-0.1-2.2-0.4c-0.6-0.3-1.1-0.6-1.5-1c-0.3-0.4-0.5-0.9-0.5-1.4
	c0-0.5,0.2-1,0.5-1.4c0.3-0.4,0.8-0.7,1.5-1c0.5-0.2,1.4-0.4,3-0.8c1.5-0.4,2.6-0.7,3.2-1c0.8-0.4,1.4-0.9,1.8-1.6
	c0.4-0.6,0.6-1.3,0.6-2.1c0-0.8-0.2-1.6-0.7-2.4c-0.5-0.7-1.2-1.3-2.1-1.7c-0.9-0.4-2-0.6-3.1-0.6c-1.2,0-2.3,0.2-3.3,0.6
	c-1,0.4-1.7,1-2.2,1.8c-0.4,0.6-0.6,1.2-0.8,1.9c0,0.2,0,0.4,0.1,0.5c0.1,0.2,0.3,0.2,0.5,0.3c0.3,0,0.6,0,0.8,0.1
	c0.3,0,0.6-0.2,0.7-0.5c0.2-0.8,0.5-1.4,1.1-1.8c0.7-0.5,1.6-0.8,2.9-0.8c1.3,0,2.3,0.2,2.9,0.7c0.6,0.5,0.9,1.1,0.9,1.8
	c0,0.6-0.2,1.1-0.7,1.5c-0.4,0.4-1.5,0.8-3.4,1.2c-1.8,0.4-3,0.8-3.7,1.1c-1,0.5-1.7,1-2.2,1.7c-0.5,0.7-0.7,1.5-0.7,2.4
	c0,0.9,0.3,1.7,0.8,2.5c0.5,0.8,1.2,1.4,2.2,1.8c1,0.4,2,0.7,3.2,0.7c1.5,0,2.8-0.2,3.8-0.7c1-0.4,1.8-1.1,2.4-2
	c0.5-0.7,0.7-1.5,0.9-2.3c0-0.2,0-0.4-0.1-0.5C226,172.6,225.8,172.5,225.7,172.5"/>
<path id="path5126" class="st0" d="M45.5,152c0-4.3,0-8.6,0-13c0-0.5,0.4-0.9,0.9-0.9c1.2,0,2.4,0,3.7,0c0.5,0,0.9-0.4,0.9-0.9
	c0,0,0-0.1,0-0.1c0-0.5-0.4-0.9-0.9-0.9c-3.8,0-7.6,0-11.5,0c-0.5,0-0.9,0.4-0.9,0.9c0,0,0,0.1,0,0.1c0,0.5,0.4,0.9,0.9,0.9
	c1.2,0,2.5,0,3.7,0c0.5,0,0.9,0.4,0.9,0.9c0,4.3,0,8.6,0,13c0,0.5,0.4,0.9,0.9,0.9c0.1,0,0.2,0,0.4,0C45,152.9,45.5,152.5,45.5,152"
	/>
<path id="path5128" class="st0" d="M76,152c0-5,0-10,0-14.9c0-0.5-0.4-0.9-0.9-0.9c-0.1,0-0.2,0-0.4,0c-0.5,0-0.9,0.4-0.9,0.9
	c0,1.7,0,3.4,0,5c0,0.5-0.4,0.9-0.9,0.9c-2.3,0-4.6,0-6.9,0c-0.5,0-0.9-0.4-0.9-0.9c0-1.7,0-3.4,0-5c0-0.5-0.4-0.9-0.9-0.9
	c-0.1,0-0.2,0-0.4,0c-0.5,0-0.9,0.4-0.9,0.9c0,5,0,10,0,14.9c0,0.5,0.4,0.9,0.9,0.9c0.1,0,0.2,0,0.4,0c0.5,0,0.9-0.4,0.9-0.9
	c0-2,0-4,0-6.1c0-0.5,0.4-0.9,0.9-0.9c2.3,0,4.6,0,6.9,0c0.5,0,0.9,0.4,0.9,0.9c0,2,0,4,0,6.1c0,0.5,0.4,0.9,0.9,0.9
	c0.1,0,0.2,0,0.4,0C75.6,152.9,76,152.5,76,152"/>
<path id="path5130" class="st0" d="M93.8,145.4C93.8,145.4,93.8,145.3,93.8,145.4c0-0.6-0.4-1-0.9-1c-1.7,0-3.5,0-5.2,0
	c-0.3,0-0.5,0.1-0.7,0.3c-0.2,0.2-0.3,0.4-0.3,0.7c0,1.6,0,3.2,0,4.8c0,0.3,0.1,0.6,0.4,0.7c1,0.7,2,1.3,3,1.7
	c1.2,0.4,2.4,0.7,3.6,0.7c1.7,0,3.2-0.4,4.5-1.1c1.4-0.7,2.4-1.7,3.1-3.1c0.7-1.3,1-2.8,1-4.5c0-1.6-0.3-3.2-1-4.6
	c-0.7-1.4-1.7-2.5-3-3.2c-1.3-0.7-2.8-1-4.4-1c-1.2,0-2.3,0.2-3.3,0.6c-1,0.4-1.8,0.9-2.3,1.6c-0.4,0.5-0.7,1.1-1,1.8
	c-0.1,0.3-0.1,0.5,0,0.8c0.1,0.2,0.3,0.4,0.6,0.5c0.1,0,0.2,0,0.2,0.1c0.5,0.1,0.9-0.1,1.1-0.6c0.2-0.5,0.4-0.9,0.7-1.2
	c0.4-0.5,0.9-0.9,1.6-1.2c0.7-0.3,1.5-0.4,2.3-0.4c1,0,1.9,0.2,2.6,0.5c0.7,0.3,1.3,0.7,1.8,1.2c0.5,0.5,0.8,1.1,1.1,1.7
	c0.4,1,0.6,2.2,0.6,3.4c0,1.5-0.3,2.8-0.8,3.8c-0.5,1-1.3,1.8-2.3,2.2c-1,0.5-2,0.7-3.1,0.7c-1,0-1.9-0.2-2.8-0.6
	c-0.7-0.3-1.3-0.6-1.7-0.9c-0.3-0.2-0.4-0.5-0.4-0.8c0-0.6,0-1.2,0-1.7c0-0.5,0.4-0.9,0.9-0.9c1,0,2,0,3.1,0
	C93.3,146.3,93.8,145.9,93.8,145.4"/>
<path id="path5132" class="st0" d="M120.6,152.3c0-5.2,0-10.3,0-15.5c0-0.4-0.3-0.7-0.7-0.7c-0.3,0-0.6,0-0.9,0
	c-0.4,0-0.7,0.3-0.7,0.7c0,5.2,0,10.3,0,15.5c0,0.4,0.3,0.7,0.7,0.7c0.3,0,0.6,0,0.9,0C120.3,152.9,120.6,152.6,120.6,152.3"/>
<path id="path5134" class="st0" d="M150.8,152c0-5,0-10,0-14.9c0-0.5-0.4-0.9-0.9-0.9c-3.4,0-6.9,0-10.3,0c-0.5,0-0.9,0.4-0.9,0.9
	c0,0,0,0.1,0,0.1c0,0.5,0.4,0.9,0.9,0.9c2.7,0,5.4,0,8.1,0c0.5,0,0.9,0.4,0.9,0.9c0,1.1,0,2.2,0,3.3c0,0.5-0.4,0.9-0.9,0.9
	c-2.5,0-5,0-7.4,0c-0.5,0-0.9,0.4-0.9,0.9c0,0,0,0.1,0,0.1c0,0.5,0.4,0.9,0.9,0.9c2.5,0,5,0,7.4,0c0.5,0,0.9,0.4,0.9,0.9
	c0,1.3,0,2.6,0,3.9c0,0.5-0.4,0.9-0.9,0.9c-2.8,0-5.6,0-8.4,0c-0.5,0-0.9,0.4-0.9,0.9c0,0,0,0.1,0,0.1c0,0.5,0.4,0.9,0.9,0.9
	c3.6,0,7.1,0,10.7,0C150.3,152.9,150.8,152.5,150.8,152"/>
<path id="path5136" class="st0" d="M170.9,152.5c2-5.2,4-10.3,6-15.5c0.1-0.2,0.1-0.4-0.1-0.6c-0.1-0.2-0.3-0.3-0.6-0.3
	c-0.3,0-0.6,0-1,0c-0.3,0-0.5,0.2-0.6,0.4c-1.4,3.9-2.8,7.8-4.2,11.8c-0.1,0.2-0.2,0.5-0.3,0.7c-0.1,0.3-0.3,0.5-0.6,0.5
	c-0.3,0-0.5-0.2-0.6-0.4c-0.1-0.2-0.2-0.5-0.3-0.7c-1.5-3.9-2.9-7.9-4.4-11.8c-0.1-0.3-0.3-0.4-0.6-0.4c-0.3,0-0.6,0-0.8,0
	c-0.2,0-0.4,0.1-0.6,0.3c-0.1,0.2-0.2,0.4-0.1,0.6c2,5.2,4,10.3,6.1,15.5c0.1,0.3,0.3,0.4,0.6,0.4c0.5,0,0.9,0,1.4,0
	C170.5,152.9,170.8,152.8,170.9,152.5"/>
<path id="path5138" class="st0" d="M195.7,152.3c0-5.2,0-10.3,0-15.5c0-0.4-0.3-0.7-0.7-0.7c-0.3,0-0.6,0-0.9,0
	c-0.4,0-0.7,0.3-0.7,0.7c0,5.2,0,10.3,0,15.5c0,0.4,0.3,0.7,0.7,0.7c0.3,0,0.6,0,0.9,0C195.4,152.9,195.7,152.6,195.7,152.3"/>
<path id="path5140" class="st0" d="M225.3,152.3c0-5.2,0-10.3,0-15.5c0-0.4-0.3-0.7-0.7-0.7c-3.3,0-6.7,0-10,0
	c-0.4,0-0.7,0.3-0.7,0.7c0,0.2,0,0.4,0,0.6c0,0.4,0.3,0.7,0.7,0.7c2.6,0,5.2,0,7.8,0c0.4,0,0.7,0.3,0.7,0.7c0,1.3,0,2.6,0,3.9
	c0,0.4-0.3,0.7-0.7,0.7c-2.2,0-4.4,0-6.6,0c-0.4,0-0.7,0.3-0.7,0.7c0,0.2,0,0.4,0,0.6c0,0.4,0.3,0.7,0.7,0.7c2.2,0,4.4,0,6.6,0
	c0.4,0,0.7,0.3,0.7,0.7c0,2.1,0,4.2,0,6.3c0,0.4,0.3,0.7,0.7,0.7c0.3,0,0.6,0,0.9,0C225,152.9,225.3,152.6,225.3,152.3"/>
<path id="path5142" class="st0" d="M120.6,127.2c0-4.5,0-9,0-13.5c0-0.4,0.3-0.7,0.7-0.7c1.4,0,2.8,0,4.2,0c0.4,0,0.7-0.3,0.7-0.7
	c0-0.2,0-0.4,0-0.6c0-0.4-0.3-0.7-0.7-0.7c-4,0-8,0-12,0c-0.4,0-0.7,0.3-0.7,0.7c0,0.2,0,0.4,0,0.6c0,0.4,0.3,0.7,0.7,0.7
	c1.4,0,2.8,0,4.2,0c0.4,0,0.7,0.3,0.7,0.7c0,4.5,0,9,0,13.5c0,0.4,0.3,0.7,0.7,0.7c0.3,0,0.6,0,0.9,0
	C120.3,127.9,120.6,127.6,120.6,127.2"/>
<path id="path5144" class="st0" d="M150.5,122.4c-0.3,0-0.5,0-0.8-0.1c-0.3,0-0.6,0.2-0.7,0.5c-0.1,0.6-0.3,1.1-0.6,1.5
	c-0.4,0.5-0.9,1-1.7,1.3c-0.8,0.3-1.6,0.5-2.6,0.5c-0.8,0-1.6-0.1-2.2-0.4c-0.6-0.3-1.1-0.6-1.5-1c-0.3-0.4-0.5-0.9-0.5-1.4
	c0-0.5,0.2-1,0.5-1.4c0.3-0.4,0.8-0.7,1.5-1c0.5-0.2,1.4-0.5,3-0.8c1.5-0.4,2.6-0.7,3.2-1c0.8-0.4,1.4-0.9,1.8-1.6
	c0.4-0.6,0.6-1.3,0.6-2.1c0-0.8-0.2-1.6-0.7-2.4c-0.5-0.7-1.2-1.3-2.1-1.7c-0.9-0.4-2-0.6-3.1-0.6c-1.2,0-2.3,0.2-3.3,0.6
	c-1,0.4-1.7,1-2.2,1.8c-0.4,0.6-0.6,1.2-0.8,1.9c0,0.2,0,0.4,0.1,0.5c0.1,0.2,0.3,0.2,0.5,0.3c0.3,0,0.6,0,0.8,0.1
	c0.3,0,0.6-0.2,0.7-0.5c0.2-0.8,0.5-1.4,1.1-1.8c0.7-0.5,1.6-0.8,2.9-0.8c1.3,0,2.3,0.2,2.9,0.7c0.6,0.5,0.9,1.1,0.9,1.8
	c0,0.6-0.2,1.1-0.7,1.5c-0.4,0.4-1.5,0.8-3.4,1.2c-1.8,0.4-3,0.8-3.7,1.1c-1,0.5-1.7,1-2.2,1.7c-0.5,0.7-0.7,1.5-0.7,2.4
	c0,0.9,0.3,1.7,0.8,2.5c0.5,0.8,1.2,1.4,2.2,1.8c1,0.4,2,0.7,3.2,0.7c1.5,0,2.8-0.2,3.8-0.7c1-0.4,1.8-1.1,2.4-2
	c0.5-0.7,0.7-1.5,0.9-2.3c0-0.2,0-0.4-0.1-0.5C150.9,122.5,150.7,122.4,150.5,122.4"/>
<path id="path5146" class="st0" d="M50,102.2c0-5.2,0-10.3,0-15.5c0-0.4-0.3-0.7-0.7-0.7c-3.3,0-6.7,0-10,0c-0.4,0-0.7,0.3-0.7,0.7
	c0,0.2,0,0.4,0,0.6c0,0.4,0.3,0.7,0.7,0.7c2.6,0,5.2,0,7.8,0c0.4,0,0.7,0.3,0.7,0.7c0,1.3,0,2.6,0,3.9c0,0.4-0.3,0.7-0.7,0.7
	c-2.2,0-4.4,0-6.6,0c-0.4,0-0.7,0.3-0.7,0.7c0,0.2,0,0.4,0,0.6c0,0.4,0.3,0.7,0.7,0.7c2.2,0,4.4,0,6.6,0c0.4,0,0.7,0.3,0.7,0.7
	c0,2.1,0,4.2,0,6.3c0,0.4,0.3,0.7,0.7,0.7c0.3,0,0.6,0,0.9,0C49.7,102.9,50,102.6,50,102.2"/>
<path id="path5148" class="st0" d="M74.6,102.2c0-5.2,0-10.3,0-15.5c0-0.4-0.3-0.7-0.7-0.7c-0.3,0-0.6,0-0.9,0
	c-0.4,0-0.7,0.3-0.7,0.7c0,4.5,0,9,0,13.5c0,0.4-0.3,0.7-0.7,0.7c-2.3,0-4.6,0-6.9,0c-0.4,0-0.7,0.3-0.7,0.7c0,0.2,0,0.4,0,0.6
	c0,0.4,0.3,0.7,0.7,0.7c3.1,0,6.1,0,9.2,0C74.3,102.9,74.6,102.6,74.6,102.2"/>
<path id="path5150" class="st0" d="M126,102.2c0-5.2,0-10.3,0-15.5c0-0.4-0.3-0.7-0.7-0.7c-0.3,0-0.6,0-0.9,0
	c-0.4,0-0.7,0.3-0.7,0.7c0,1.9,0,3.7,0,5.6c0,0.4-0.3,0.7-0.7,0.7c-2.5,0-4.9,0-7.4,0c-0.4,0-0.7-0.3-0.7-0.7c0-1.9,0-3.7,0-5.6
	c0-0.4-0.3-0.7-0.7-0.7c-0.3,0-0.6,0-0.9,0c-0.4,0-0.7,0.3-0.7,0.7c0,5.2,0,10.3,0,15.5c0,0.4,0.3,0.7,0.7,0.7c0.3,0,0.6,0,0.9,0
	c0.4,0,0.7-0.3,0.7-0.7c0-2.2,0-4.4,0-6.6c0-0.4,0.3-0.7,0.7-0.7c2.5,0,4.9,0,7.4,0c0.4,0,0.7,0.3,0.7,0.7c0,2.2,0,4.4,0,6.6
	c0,0.4,0.3,0.7,0.7,0.7c0.3,0,0.6,0,0.9,0C125.7,102.9,126,102.6,126,102.2"/>
<path id="path5152" class="st0" d="M150.8,102.2c0-5.2,0-10.3,0-15.5c0-0.4-0.3-0.7-0.7-0.7c-3.6,0-7.2,0-10.8,0
	c-0.4,0-0.7,0.3-0.7,0.7c0,0.2,0,0.4,0,0.6c0,0.4,0.3,0.7,0.7,0.7c2.9,0,5.7,0,8.6,0c0.4,0,0.7,0.3,0.7,0.7c0,1.3,0,2.5,0,3.8
	c0,0.4-0.3,0.7-0.7,0.7c-2.7,0-5.3,0-8,0c-0.4,0-0.7,0.3-0.7,0.7c0,0.2,0,0.4,0,0.6c0,0.4,0.3,0.7,0.7,0.7c2.7,0,5.3,0,8,0
	c0.4,0,0.7,0.3,0.7,0.7c0,1.5,0,2.9,0,4.4c0,0.4-0.3,0.7-0.7,0.7c-3,0-6,0-9,0c-0.4,0-0.7,0.3-0.7,0.7c0,0.2,0,0.4,0,0.6
	c0,0.4,0.3,0.7,0.7,0.7c3.7,0,7.5,0,11.2,0C150.5,102.9,150.8,102.6,150.8,102.2"/>
<path id="path5154" class="st0" d="M170.9,102.4c2-5.2,4-10.3,6-15.5c0.1-0.2,0.1-0.4-0.1-0.6c-0.1-0.2-0.3-0.3-0.6-0.3
	c-0.3,0-0.6,0-1,0c-0.3,0-0.5,0.2-0.6,0.4c-1.4,3.9-2.8,7.8-4.2,11.8c-0.1,0.2-0.2,0.5-0.3,0.7c-0.1,0.3-0.3,0.5-0.6,0.5
	c-0.3,0-0.5-0.2-0.6-0.4c-0.1-0.2-0.2-0.5-0.3-0.7c-1.5-3.9-2.9-7.9-4.4-11.8c-0.1-0.3-0.3-0.4-0.6-0.4c-0.3,0-0.6,0-0.8,0
	c-0.2,0-0.4,0.1-0.6,0.3c-0.1,0.2-0.2,0.4-0.1,0.6c2,5.2,4,10.3,6.1,15.5c0.1,0.3,0.3,0.4,0.6,0.4c0.5,0,0.9,0,1.4,0
	C170.5,102.9,170.8,102.7,170.9,102.4"/>
<path id="path5156" class="st0" d="M195.7,102.2c0-5.2,0-10.3,0-15.5c0-0.4-0.3-0.7-0.7-0.7c-0.3,0-0.6,0-0.9,0
	c-0.4,0-0.7,0.3-0.7,0.7c0,5.2,0,10.3,0,15.5c0,0.4,0.3,0.7,0.7,0.7c0.3,0,0.6,0,0.9,0C195.4,102.9,195.7,102.6,195.7,102.2"/>
<path id="path5158" class="st0" d="M225.3,102.2c0-5.2,0-10.3,0-15.5c0-0.4-0.3-0.7-0.7-0.7c-3.3,0-6.7,0-10,0
	c-0.4,0-0.7,0.3-0.7,0.7c0,0.2,0,0.4,0,0.6c0,0.4,0.3,0.7,0.7,0.7c2.6,0,5.2,0,7.8,0c0.4,0,0.7,0.3,0.7,0.7c0,1.3,0,2.6,0,3.9
	c0,0.4-0.3,0.7-0.7,0.7c-2.2,0-4.4,0-6.6,0c-0.4,0-0.7,0.3-0.7,0.7c0,0.2,0,0.4,0,0.6c0,0.4,0.3,0.7,0.7,0.7c2.2,0,4.4,0,6.6,0
	c0.4,0,0.7,0.3,0.7,0.7c0,2.1,0,4.2,0,6.3c0,0.4,0.3,0.7,0.7,0.7c0.3,0,0.6,0,0.9,0C225,102.9,225.3,102.6,225.3,102.2"/>
<path id="path5160" class="st0" d="M45.6,77.1c0-2.1,0-4.2,0-6.2c0-0.1,0-0.3,0.1-0.4c1.9-2.8,3.8-5.7,5.7-8.5
	c0.1-0.2,0.2-0.5,0-0.7C51.3,61.1,51,61,50.8,61c-0.4,0-0.7,0-1.1,0c-0.2,0-0.4,0.1-0.6,0.3c-1,1.6-2.1,3.2-3.1,4.8
	c-0.4,0.6-0.8,1.2-1.1,1.9c-0.1,0.2-0.3,0.3-0.6,0.3c-0.2,0-0.5-0.1-0.6-0.3c-0.4-0.6-0.8-1.3-1.3-2c-1-1.5-2-3.1-3.1-4.6
	c-0.1-0.2-0.3-0.3-0.6-0.3c-0.3,0-0.6,0-1,0c-0.3,0-0.5,0.1-0.6,0.4c-0.1,0.2-0.1,0.5,0,0.7c2,2.8,3.9,5.6,5.9,8.5
	c0.1,0.1,0.1,0.2,0.1,0.4c0,2.1,0,4.2,0,6.2c0,0.4,0.3,0.7,0.7,0.7c0.3,0,0.6,0,0.9,0C45.3,77.8,45.6,77.5,45.6,77.1"/>
<path id="path5162" class="st0" d="M100.7,77.1c0-5.2,0-10.3,0-15.5c0-0.4-0.3-0.7-0.7-0.7c-3.6,0-7.2,0-10.8,0
	c-0.4,0-0.7,0.3-0.7,0.7c0,0.2,0,0.4,0,0.6c0,0.4,0.3,0.7,0.7,0.7c2.9,0,5.7,0,8.6,0c0.4,0,0.7,0.3,0.7,0.7c0,1.3,0,2.5,0,3.8
	c0,0.4-0.3,0.7-0.7,0.7c-2.7,0-5.3,0-8,0c-0.4,0-0.7,0.3-0.7,0.7c0,0.2,0,0.4,0,0.6c0,0.4,0.3,0.7,0.7,0.7c2.7,0,5.3,0,8,0
	c0.4,0,0.7,0.3,0.7,0.7c0,1.5,0,2.9,0,4.4c0,0.4-0.3,0.7-0.7,0.7c-3,0-6,0-9,0c-0.4,0-0.7,0.3-0.7,0.7c0,0.2,0,0.4,0,0.6
	c0,0.4,0.3,0.7,0.7,0.7c3.7,0,7.5,0,11.2,0C100.4,77.8,100.7,77.5,100.7,77.1"/>
<path id="path5164" class="st0" d="M120.6,77.1c0-4.5,0-9,0-13.5c0-0.4,0.3-0.7,0.7-0.7c1.4,0,2.8,0,4.2,0c0.4,0,0.7-0.3,0.7-0.7
	c0-0.2,0-0.4,0-0.6c0-0.4-0.3-0.7-0.7-0.7c-4,0-8,0-12,0c-0.4,0-0.7,0.3-0.7,0.7c0,0.2,0,0.4,0,0.6c0,0.4,0.3,0.7,0.7,0.7
	c1.4,0,2.8,0,4.2,0c0.4,0,0.7,0.3,0.7,0.7c0,4.5,0,9,0,13.5c0,0.4,0.3,0.7,0.7,0.7c0.3,0,0.6,0,0.9,0
	C120.3,77.8,120.6,77.5,120.6,77.1"/>
<path id="path5166" class="st0" d="M189.5,60.9c-0.3,0-0.6,0-0.9,0c-0.4,0-0.7,0.3-0.7,0.7c0,3,0,6,0,9c0,1.7,0.2,3,0.6,4
	c0.4,1,1.1,1.8,2.1,2.4c1,0.6,2.3,0.9,3.9,0.9c1.6,0,2.9-0.3,3.9-0.8c1-0.5,1.7-1.3,2.1-2.4c0.4-1,0.6-2.4,0.6-4.2c0-3,0-6,0-9
	c0-0.4-0.3-0.7-0.7-0.7c-0.3,0-0.6,0-0.9,0c-0.4,0-0.7,0.3-0.7,0.7c0,3,0,6,0,9c0,1.5-0.1,2.5-0.4,3.2c-0.3,0.7-0.7,1.2-1.4,1.6
	c-0.7,0.4-1.5,0.6-2.4,0.6c-1.6,0-2.8-0.4-3.5-1.1c-0.7-0.7-1-2.2-1-4.3c0-3,0-6,0-9C190.2,61.2,189.9,60.9,189.5,60.9"/>
<path id="path5168" class="st0" d="M218.6,74.7c-0.5,0.2-1,0.4-1.4,0.7c-0.6,0.4-1.1,0.8-1.7,1.2c-0.9,0.7-1.8,1.3-2.7,1.6
	c-0.2,0.1-0.3,0.1-0.5,0c-0.2-0.1-0.3-0.2-0.3-0.3c0-0.1-0.1-0.2-0.1-0.3c-0.1-0.3,0-0.7,0.3-0.8c0.6-0.3,1.3-0.7,2.1-1.2
	c0.9-0.6,1.6-1.1,1.6-1.1c0.6-0.5,1.4-1,2.3-1.3c0.2-0.1,0.3,0,0.5,0c0.2,0.1,0.3,0.2,0.3,0.4c0,0.1,0.1,0.2,0.1,0.3
	C219.1,74.2,219,74.6,218.6,74.7"/>
<path id="path5170" class="st0" d="M70.6,52.1c0-2.1,0-4.2,0-6.2c0-0.1,0-0.3,0.1-0.4c1.9-2.8,3.8-5.7,5.7-8.5
	c0.1-0.2,0.2-0.5,0-0.7c-0.1-0.2-0.3-0.4-0.6-0.4c-0.4,0-0.7,0-1.1,0c-0.2,0-0.4,0.1-0.6,0.3c-1,1.6-2.1,3.2-3.1,4.8
	c-0.4,0.6-0.8,1.2-1.1,1.9c-0.1,0.2-0.3,0.3-0.6,0.3c-0.2,0-0.5-0.1-0.6-0.3c-0.4-0.6-0.8-1.3-1.3-2c-1-1.5-2-3.1-3.1-4.6
	c-0.1-0.2-0.3-0.3-0.6-0.3c-0.3,0-0.6,0-1,0c-0.3,0-0.5,0.1-0.6,0.4c-0.1,0.2-0.1,0.5,0,0.7c2,2.8,3.9,5.6,5.9,8.5
	c0.1,0.1,0.1,0.2,0.1,0.4c0,2.1,0,4.2,0,6.2c0,0.4,0.3,0.7,0.7,0.7c0.3,0,0.6,0,0.9,0C70.3,52.8,70.6,52.5,70.6,52.1"/>
<path id="path5172" class="st0" d="M95.5,52.1c0-4.5,0-9,0-13.5c0-0.4,0.3-0.7,0.7-0.7c1.4,0,2.8,0,4.2,0c0.4,0,0.7-0.3,0.7-0.7
	c0-0.2,0-0.4,0-0.6c0-0.4-0.3-0.7-0.7-0.7c-4,0-8,0-12,0c-0.4,0-0.7,0.3-0.7,0.7c0,0.2,0,0.4,0,0.6c0,0.4,0.3,0.7,0.7,0.7
	c1.4,0,2.8,0,4.2,0c0.4,0,0.7,0.3,0.7,0.7c0,4.5,0,9,0,13.5c0,0.4,0.3,0.7,0.7,0.7c0.3,0,0.6,0,0.9,0C95.2,52.8,95.5,52.5,95.5,52.1
	"/>
<path id="path5174" class="st0" d="M126.1,52.1c0-5.2,0-10.3,0-15.5c0-0.4-0.3-0.7-0.7-0.7c-0.4,0-0.8,0-1.3,0
	c-0.2,0-0.4,0.1-0.6,0.3c-2.5,3.7-4.9,7.4-7.4,11.1c-0.2,0.2-0.5,0.4-0.8,0.3c-0.3-0.1-0.5-0.3-0.5-0.6c0-3.4,0-6.9,0-10.3
	c0-0.4-0.3-0.7-0.7-0.7c-0.3,0-0.5,0-0.8,0c-0.4,0-0.7,0.3-0.7,0.7c0,5.2,0,10.3,0,15.5c0,0.4,0.3,0.7,0.7,0.7c0.4,0,0.8,0,1.3,0
	c0.2,0,0.4-0.1,0.6-0.3c2.5-3.7,4.9-7.4,7.4-11.1c0.2-0.2,0.5-0.4,0.8-0.3c0.3,0.1,0.5,0.3,0.5,0.6c0,3.4,0,6.9,0,10.3
	c0,0.4,0.3,0.7,0.7,0.7c0.3,0,0.5,0,0.8,0C125.8,52.8,126.1,52.5,126.1,52.1"/>
<path id="path5176" class="st0" d="M150.8,52.1c0-5.2,0-10.3,0-15.5c0-0.4-0.3-0.7-0.7-0.7c-3.6,0-7.2,0-10.8,0
	c-0.4,0-0.7,0.3-0.7,0.7c0,0.2,0,0.4,0,0.6c0,0.4,0.3,0.7,0.7,0.7c2.9,0,5.7,0,8.6,0c0.4,0,0.7,0.3,0.7,0.7c0,1.3,0,2.5,0,3.8
	c0,0.4-0.3,0.7-0.7,0.7c-2.7,0-5.3,0-8,0c-0.4,0-0.7,0.3-0.7,0.7c0,0.2,0,0.4,0,0.6c0,0.4,0.3,0.7,0.7,0.7c2.7,0,5.3,0,8,0
	c0.4,0,0.7,0.3,0.7,0.7c0,1.5,0,2.9,0,4.4c0,0.4-0.3,0.7-0.7,0.7c-3,0-6,0-9,0c-0.4,0-0.7,0.3-0.7,0.7c0,0.2,0,0.4,0,0.6
	c0,0.4,0.3,0.7,0.7,0.7c3.7,0,7.5,0,11.2,0C150.5,52.8,150.8,52.5,150.8,52.1"/>
<path id="path5178" class="st0" d="M176,52.3c1.4-5.2,2.7-10.3,4.1-15.5c0.1-0.2,0-0.4-0.1-0.6c-0.1-0.2-0.3-0.3-0.5-0.3
	c-0.3,0-0.6,0-0.9,0c-0.3,0-0.6,0.2-0.7,0.5c-0.8,3.5-1.6,7-2.4,10.5c0,0.2-0.1,0.3-0.1,0.5c-0.1,0.3-0.3,0.5-0.6,0.5
	c-0.3,0-0.6-0.2-0.7-0.5c0-0.1,0-0.1-0.1-0.2c-1-3.6-2-7.2-3.1-10.9c-0.1-0.3-0.3-0.5-0.6-0.5c-0.6,0-1.1,0-1.7,0
	c-0.3,0-0.6,0.2-0.6,0.5c-0.8,2.7-1.5,5.3-2.3,8c-0.3,1-0.5,1.9-0.7,2.8c-0.1,0.3-0.3,0.5-0.6,0.5c-0.3,0-0.6-0.2-0.7-0.5
	c0-0.2-0.1-0.3-0.1-0.5c-0.8-3.4-1.7-6.9-2.5-10.3c-0.1-0.3-0.3-0.5-0.7-0.5c-0.3,0-0.6,0-0.8,0c-0.2,0-0.4,0.1-0.5,0.3
	c-0.1,0.2-0.2,0.4-0.1,0.6c1.4,5.2,2.8,10.3,4.2,15.5c0.1,0.3,0.3,0.5,0.6,0.5c0.4,0,0.8,0,1.1,0c0.3,0,0.6-0.2,0.6-0.5
	c1.1-3.9,2.2-7.9,3.3-11.8c0.1-0.3,0.3-0.5,0.6-0.5c0.3,0,0.6,0.2,0.6,0.5c1.1,3.9,2.2,7.9,3.3,11.8c0.1,0.3,0.3,0.5,0.6,0.5
	c0.4,0,0.8,0,1.2,0C175.7,52.8,175.9,52.6,176,52.3"/>
<path id="path5180" class="st0" d="M195.7,52.1c0-4.5,0-9,0-13.5c0-0.4,0.3-0.7,0.7-0.7c1.4,0,2.8,0,4.2,0c0.4,0,0.7-0.3,0.7-0.7
	c0-0.2,0-0.4,0-0.6c0-0.4-0.3-0.7-0.7-0.7c-4,0-8,0-12,0c-0.4,0-0.7,0.3-0.7,0.7c0,0.2,0,0.4,0,0.6c0,0.4,0.3,0.7,0.7,0.7
	c1.4,0,2.8,0,4.2,0c0.4,0,0.7,0.3,0.7,0.7c0,4.5,0,9,0,13.5c0,0.4,0.3,0.7,0.7,0.7c0.3,0,0.6,0,0.9,0
	C195.4,52.8,195.7,52.5,195.7,52.1"/>
<polygon id="polygon5182" class="st1" points="220.7,45.9 218.9,45.9 218.8,45.9 218.1,47.7 221.3,47.7 "/>
<path id="path5184" class="st0" d="M169,111.1c-0.3,0-0.5,0.2-0.6,0.4c-2.1,5.2-4.2,10.3-6.3,15.5c-0.1,0.2-0.1,0.4,0.1,0.6
	c0.1,0.2,0.3,0.3,0.6,0.3c0.5,0,1,0,1.5,0c0.6-1.6,1.3-3.3,1.9-4.9c0.2-0.6,0.4-1.2,0.7-1.8c0.6-1.5,1.1-3,1.7-4.5
	c0.2-0.5,0.4-0.9,0.5-1.4c0.1-0.3,0.3-0.4,0.6-0.4c0.1,0,0.1,0,0.2,0c0.3,0,0.5,0.1,0.6,0.4c0.2,0.4,0.3,0.9,0.5,1.4
	c0.6,1.5,1.1,3,1.7,4.5c0.2,0.6,0.4,1.2,0.7,1.8c0.6,1.6,1.3,3.3,1.9,4.9c0.5,0,1,0,1.5,0c0.2,0,0.4-0.1,0.6-0.3
	c0.1-0.2,0.2-0.4,0.1-0.6c-2.1-5.2-4.2-10.3-6.3-15.5c-0.1-0.3-0.3-0.4-0.6-0.4c-0.2,0-0.4,0-0.7,0S169.2,111.1,169,111.1"/>
<polygon id="polygon5186" class="st1" points="170.6,70.9 168.8,70.9 168.8,71 168.1,72.7 171.2,72.7 "/>
<circle id="_236366152" class="st0" cx="58.1" cy="23" r="4.3"/>
<polyline id="_179029536" class="st1" points="85.1,27.5 85.1,18.5 67.1,18.5 67.1,27.5 "/>
<polyline id="_242593344" class="st1" points="49.1,27.5 49.1,18.5 31,18.5 31,27.5 "/>
<line id="_254777480" class="st0" x1="85.1" y1="27.5" x2="67.1" y2="27.5"/>
<line id="_185666432" class="st0" x1="49.1" y1="27.5" x2="31" y2="27.5"/>
<rect id="rect5198" x="13" y="13.1" class="st0" width="238" height="238"/>
<circle id="_186249800" class="st0" cx="205.9" cy="23" r="4.3"/>
<polyline id="_184008960" class="st1" points="233,27.5 233,18.5 214.9,18.5 214.9,27.5 "/>
<polyline id="_174939752" class="st1" points="196.9,27.5 196.9,18.5 178.9,18.5 178.9,27.5 "/>
<line id="_181879312" class="st0" x1="233" y1="27.5" x2="214.9" y2="27.5"/>
<line id="_178623760" class="st0" x1="196.9" y1="27.5" x2="178.9" y2="27.5"/>
<circle id="_183769056" class="st0" cx="58.1" cy="241.1" r="4.3"/>
<polyline id="_245551320" class="st1" points="85.1,245.7 85.1,236.6 67.1,236.6 67.1,245.7 "/>
<polyline id="_81208936" class="st1" points="49.1,245.7 49.1,236.6 31,236.6 31,245.7 "/>
<line id="_80013632" class="st0" x1="85.1" y1="245.7" x2="67.1" y2="245.7"/>
<line id="_185927664" class="st0" x1="49.1" y1="245.7" x2="31" y2="245.7"/>
<circle id="_82563128" class="st0" cx="205.9" cy="241.1" r="4.3"/>
<polyline id="_239001976" class="st1" points="233,245.7 233,236.6 214.9,236.6 214.9,245.7 "/>
<polyline id="_184131688" class="st1" points="196.9,245.7 196.9,236.6 178.9,236.6 178.9,245.7 "/>
<line id="_250499504" class="st0" x1="233" y1="245.7" x2="214.9" y2="245.7"/>
<line id="_248478144" class="st0" x1="196.9" y1="245.7" x2="178.9" y2="245.7"/>
<path id="path5230" class="st0" d="M93,111.7c0,0.2,0,0.5,0,0.7c0,0.3-0.1,0.5-0.4,0.6c-0.4,0.1-0.8,0.3-1.2,0.6
	c-0.9,0.6-1.6,1.4-2,2.4c-0.5,1-0.7,2.2-0.7,3.6c0,2.2,0.5,3.8,1.6,5c0.7,0.7,1.4,1.2,2.3,1.5c0.3,0.1,0.4,0.3,0.4,0.6
	c0,0.2,0,0.5,0,0.7c0,0.4-0.4,0.7-0.8,0.6c-0.7-0.2-1.3-0.4-2-0.8c-1.3-0.7-2.2-1.7-2.9-3.1c-0.7-1.3-1-2.9-1-4.6
	c0-1.7,0.3-3.2,1-4.5c0.7-1.3,1.6-2.4,2.8-3.1c0.6-0.4,1.3-0.7,2.1-0.9C92.7,110.9,93.1,111.2,93,111.7 M96.5,111
	c1.4,0.3,2.7,1.1,3.7,2.1c1.5,1.6,2.2,3.8,2.2,6.6c0,1.5-0.3,2.9-1,4.2c-0.6,1.3-1.6,2.4-2.8,3.1c-0.7,0.4-1.4,0.7-2.1,0.9
	c-0.4,0.1-0.8-0.2-0.8-0.6c0-0.2,0-0.5,0-0.7c0-0.4,0.1-0.5,0.5-0.6c0.9-0.3,1.6-0.8,2.3-1.5c1.1-1.2,1.6-2.8,1.6-4.8
	c0-2.5-0.6-4.3-1.7-5.4c-0.7-0.7-1.4-1.1-2.3-1.4c-0.3-0.1-0.4-0.3-0.4-0.6c0-0.2,0-0.5,0-0.7C95.7,111.2,96.1,110.9,96.5,111"/>
</svg>
