<?xml version="1.0" encoding="utf-8"?>
<!-- Generator: Adobe Illustrator 23.0.0, SVG Export Plug-In . SVG Version: 6.00 Build 0)  -->
<svg version="1.1"
	 id="svg246" inkscape:version="0.92.1 r15371" sodipodi:docname="wordclock_box.svg" xmlns:cc="http://creativecommons.org/ns#" xmlns:dc="http://purl.org/dc/elements/1.1/" xmlns:inkscape="http://www.inkscape.org/namespaces/inkscape" xmlns:rdf="http://www.w3.org/1999/02/22-rdf-syntax-ns#" xmlns:sodipodi="http://sodipodi.sourceforge.net/DTD/sodipodi-0.dtd" xmlns:svg="http://www.w3.org/2000/svg"
	 xmlns="http://www.w3.org/2000/svg" xmlns:xlink="http://www.w3.org/1999/xlink" x="0px" y="0px" viewBox="0 0 1296 432"
	 style="enable-background:new 0 0 1296 432;" xml:space="preserve">
<style type="text/css">
	.st0{fill:none;stroke:#000000;stroke-width:3.937010e-03;stroke-linecap:round;stroke-linejoin:round;}
	.st1{fill:none;stroke:#000000;stroke-width:3.937010e-03;}
	.st2{fill:none;stroke:#000000;stroke-width:6.959830e-03;}
	.st3{fill:none;stroke:#000000;stroke-width:1.052918e-02;stroke-linecap:round;stroke-linejoin:round;}
</style>
<sodipodi:namedview  bordercolor="#666666" borderopacity="1" gridtolerance="10" guidetolerance="10" id="namedview248" inkscape:current-layer="svg246" inkscape:cx="1334.5112" inkscape:cy="312.38204" inkscape:pageopacity="0" inkscape:pageshadow="2" inkscape:window-height="868" inkscape:window-maximized="0" inkscape:window-width="1440" inkscape:window-x="0" inkscape:window-y="0" inkscape:zoom="1.3323725" objecttolerance="10" pagecolor="#ffffff" showgrid="false">
	</sodipodi:namedview>
<g id="_175858024">
	<g id="g125">
		<g id="g88">
			<polyline id="_80153840" class="st0" points="979.2,261.3 965.6,261.3 965.6,256.1 957.5,256.1 957.5,261.3 950.7,261.3 
				950.7,269.3 957.5,269.3 957.5,274.5 965.6,274.5 965.6,269.3 979.2,269.3 			"/>
			<g id="g84">
				<polyline id="_236649952" class="st0" points="979.2,292.3 987.8,292.3 987.8,274.3 979.2,274.3 				"/>
				<polyline id="_242370400" class="st0" points="979.2,256.3 987.8,256.3 987.8,238.3 979.2,238.3 				"/>
			</g>
			<line id="_240519928" class="st0" x1="979.2" y1="256.3" x2="979.2" y2="261.3"/>
			<line id="_233495296" class="st0" x1="979.2" y1="269.3" x2="979.2" y2="274.3"/>
		</g>
		<g id="g97">
			<polyline id="_83883368" class="st0" points="979.2,113.9 965.6,113.9 965.6,108.6 957.5,108.6 957.5,113.9 950.7,113.9 
				950.7,121.8 957.5,121.8 957.5,127.1 965.6,127.1 965.6,121.8 979.2,121.8 			"/>
			<g id="g93">
				<polyline id="_178739248" class="st0" points="979.2,144.8 987.8,144.8 987.8,126.8 979.2,126.8 				"/>
				<polyline id="_81917456" class="st0" points="979.2,108.8 987.8,108.8 987.8,90.8 979.2,90.8 				"/>
			</g>
			<line id="_186171896" class="st0" x1="979.2" y1="108.8" x2="979.2" y2="113.9"/>
			<line id="_189658704" class="st0" x1="979.2" y1="121.8" x2="979.2" y2="126.8"/>
		</g>
		<line id="_86581440" class="st1" x1="979.2" y1="297" x2="979.2" y2="292.3"/>
		<path id="_175279920" inkscape:connector-curvature="0" class="st1" d="M860.4,297h32.4 M910.8,297h5 M923.8,297h5 M946.8,297
			h32.4"/>
		<line id="_188121920" class="st1" x1="860.4" y1="86.1" x2="860.4" y2="297"/>
		<line id="_82479048" class="st1" x1="979.2" y1="90.8" x2="979.2" y2="86.1"/>
		<line id="_241652072" class="st1" x1="979.2" y1="238.3" x2="979.2" y2="144.8"/>
		<g id="g111">
			<polyline id="_176459600" class="st0" points="923.8,297 923.8,283.5 929,283.5 929,275.4 923.8,275.4 923.8,268.6 915.8,268.6 
				915.8,275.4 910.6,275.4 910.6,283.5 915.8,283.5 915.8,297 			"/>
			<g id="g107">
				<polyline id="_184000288" class="st0" points="892.8,297 892.8,305.6 910.8,305.6 910.8,297 				"/>
				<polyline id="_183088920" class="st0" points="928.8,297 928.8,305.6 946.8,305.6 946.8,297 				"/>
			</g>
			<line id="_79242456" class="st0" x1="928.8" y1="297" x2="923.8" y2="297"/>
			<line id="_53031312" class="st0" x1="915.8" y1="297" x2="910.8" y2="297"/>
		</g>
		<g id="g123">
			<path id="_51699680" inkscape:connector-curvature="0" class="st1" d="M979.2,86.1h-32.4 M928.8,86.1h-5 M915.8,86.1h-5
				 M892.8,86.1h-32.4"/>
			<g id="g121">
				<polyline id="_186458792" class="st0" points="915.8,86.1 915.8,99.7 910.6,99.7 910.6,107.8 915.8,107.8 915.8,114.6 
					923.8,114.6 923.8,107.8 929,107.8 929,99.7 923.8,99.7 923.8,86.1 				"/>
				<g id="g117">
					<polyline id="_175126792" class="st0" points="946.8,86.1 946.8,77.5 928.8,77.5 928.8,86.1 					"/>
					<polyline id="_188839520" class="st0" points="910.8,86.1 910.8,77.5 892.8,77.5 892.8,86.1 					"/>
				</g>
				<line id="_51964096" class="st0" x1="910.8" y1="86.1" x2="915.8" y2="86.1"/>
				<line id="_185815856" class="st0" x1="923.8" y1="86.1" x2="928.8" y2="86.1"/>
			</g>
		</g>
	</g>
	<g id="g133">
		<g id="g129">
			<polyline id="_250735608" class="st0" points="865.8,164.6 874.8,164.6 874.8,182.6 865.8,182.6 			"/>
			<polyline id="_178324296" class="st0" points="865.8,200.6 874.8,200.6 874.8,218.6 865.8,218.6 			"/>
		</g>
		<line id="_51774216" class="st0" x1="865.8" y1="164.6" x2="865.8" y2="182.6"/>
		<line id="_237625952" class="st0" x1="865.8" y1="200.6" x2="865.8" y2="218.6"/>
	</g>
</g>
<g id="_185833568">
	<g id="g180">
		<g id="g143">
			<polyline id="_185962584" class="st0" points="1117.4,261.3 1103.9,261.3 1103.9,256.1 1095.7,256.1 1095.7,261.3 1089,261.3 
				1089,269.3 1095.7,269.3 1095.7,274.5 1103.9,274.5 1103.9,269.3 1117.4,269.3 			"/>
			<g id="g139">
				<polyline id="_179026024" class="st0" points="1117.4,292.3 1126,292.3 1126,274.3 1117.4,274.3 				"/>
				<polyline id="_83546064" class="st0" points="1117.4,256.3 1126,256.3 1126,238.3 1117.4,238.3 				"/>
			</g>
			<line id="_184417168" class="st0" x1="1117.4" y1="256.3" x2="1117.4" y2="261.3"/>
			<line id="_184270624" class="st0" x1="1117.4" y1="269.3" x2="1117.4" y2="274.3"/>
		</g>
		<g id="g152">
			<polyline id="_252298712" class="st0" points="1117.4,113.9 1103.9,113.9 1103.9,108.6 1095.7,108.6 1095.7,113.9 1089,113.9 
				1089,121.8 1095.7,121.8 1095.7,127.1 1103.9,127.1 1103.9,121.8 1117.4,121.8 			"/>
			<g id="g148">
				<polyline id="_187613256" class="st0" points="1117.4,144.8 1126,144.8 1126,126.8 1117.4,126.8 				"/>
				<polyline id="_185230968" class="st0" points="1117.4,108.8 1126,108.8 1126,90.8 1117.4,90.8 				"/>
			</g>
			<line id="_252467160" class="st0" x1="1117.4" y1="108.8" x2="1117.4" y2="113.9"/>
			<line id="_185962920" class="st0" x1="1117.4" y1="121.8" x2="1117.4" y2="126.8"/>
		</g>
		<line id="_183480264" class="st1" x1="1117.4" y1="297" x2="1117.4" y2="292.3"/>
		<path id="_250116752" inkscape:connector-curvature="0" class="st1" d="M998.6,297h32.4 M1049,297h5 M1062,297h5 M1085.1,297h32.4
			"/>
		<line id="_186133664" class="st1" x1="998.6" y1="86.1" x2="998.6" y2="297"/>
		<line id="_238559072" class="st1" x1="1117.4" y1="90.8" x2="1117.4" y2="86.1"/>
		<line id="_85469976" class="st1" x1="1117.4" y1="238.3" x2="1117.4" y2="144.8"/>
		<g id="g166">
			<polyline id="_188608680" class="st0" points="1062,297 1062,283.5 1067.3,283.5 1067.3,275.4 1062,275.4 1062,268.6 
				1054.1,268.6 1054.1,275.4 1048.8,275.4 1048.8,283.5 1054.1,283.5 1054.1,297 			"/>
			<g id="g162">
				<polyline id="_233774960" class="st0" points="1031,297 1031,305.6 1049,305.6 1049,297 				"/>
				<polyline id="_178606040" class="st0" points="1067,297 1067,305.6 1085.1,305.6 1085.1,297 				"/>
			</g>
			<line id="_190059776" class="st0" x1="1067" y1="297" x2="1062" y2="297"/>
			<line id="_175103088" class="st0" x1="1054.1" y1="297" x2="1049" y2="297"/>
		</g>
		<g id="g178">
			<path id="_84431544" inkscape:connector-curvature="0" class="st1" d="M1117.4,86.1h-32.4 M1067,86.1h-5 M1054.1,86.1h-5
				 M1031,86.1h-32.4"/>
			<g id="g176">
				<polyline id="_78858384" class="st0" points="1054.1,86.1 1054.1,99.7 1048.8,99.7 1048.8,107.8 1054.1,107.8 1054.1,114.6 
					1062,114.6 1062,107.8 1067.2,107.8 1067.2,99.7 1062,99.7 1062,86.1 				"/>
				<g id="g172">
					<polyline id="_79783720" class="st0" points="1085.1,86.1 1085.1,77.5 1067,77.5 1067,86.1 					"/>
					<polyline id="_239974736" class="st0" points="1049,86.1 1049,77.5 1031,77.5 1031,86.1 					"/>
				</g>
				<line id="_188873624" class="st0" x1="1049" y1="86.1" x2="1054.1" y2="86.1"/>
				<line id="_80162024" class="st0" x1="1062" y1="86.1" x2="1067" y2="86.1"/>
			</g>
		</g>
	</g>
	<g id="g188">
		<g id="g184">
			<polyline id="_182999104" class="st0" points="1004,164.6 1013,164.6 1013,182.6 1004,182.6 			"/>
			<polyline id="_178638904" class="st0" points="1004,200.6 1013,200.6 1013,218.6 1004,218.6 			"/>
		</g>
		<line id="_82153432" class="st0" x1="1004" y1="164.6" x2="1004" y2="182.6"/>
		<line id="_188985752" class="st0" x1="1004" y1="200.6" x2="1004" y2="218.6"/>
	</g>
</g>
<path id="_247861712" inkscape:connector-curvature="0" class="st1" d="M633.6,195.6v5 M633.6,218.6V296H711 M729,296h18 M765,296
	h77.4v-77.4 M842.4,200.6v-5 M842.4,187.6v-5 M842.4,164.5V87.2H765 M747,87.2h-18 M711,87.2h-77.4v77.4 M633.6,182.6v5"/>
<polyline id="_237901128" class="st0" points="633.6,195.6 647.1,195.6 647.1,200.8 655.3,200.8 655.3,195.6 662,195.6 662,187.6 
	655.3,187.6 655.3,182.4 647.1,182.4 647.1,187.6 633.6,187.6 "/>
<g id="g195">
	<polyline id="_53804992" class="st0" points="633.6,164.5 625,164.5 625,182.6 633.6,182.6 	"/>
	<polyline id="_241174456" class="st0" points="633.6,200.6 625,200.6 625,218.6 633.6,218.6 	"/>
</g>
<polyline id="_186502496" class="st0" points="842.4,195.6 828.8,195.6 828.8,200.8 820.7,200.8 820.7,195.6 813.9,195.6 
	813.9,187.6 820.7,187.6 820.7,182.4 828.8,182.4 828.8,187.6 842.4,187.6 "/>
<g id="g200">
	<polyline id="_183738552" class="st0" points="842.4,164.5 851,164.5 851,182.6 842.4,182.6 	"/>
	<polyline id="_185783816" class="st0" points="842.4,200.6 851,200.6 851,218.6 842.4,218.6 	"/>
</g>
<circle id="_244672992" class="st2" cx="641.6" cy="148.9" r="3.6"/>
<circle id="_178714152" class="st2" cx="641.6" cy="98.5" r="3.6"/>
<circle id="_178714152_1_" class="st2" cx="771.2" cy="98.5" r="3.6"/>
<circle id="_178714152_3_" class="st2" cx="771.2" cy="148.9" r="3.6"/>
<polyline id="_178667952" class="st0" points="711,87.2 711,78.6 729,78.6 729,87.2 "/>
<polyline id="_247356128" class="st0" points="747,87.2 747,78.6 765,78.6 765,87.2 "/>
<line id="_86424136" class="st0" x1="747" y1="87.2" x2="742" y2="87.2"/>
<line id="_237210488" class="st0" x1="734" y1="87.2" x2="729" y2="87.2"/>
<line id="_179102432" class="st1" x1="734" y1="87.2" x2="742" y2="87.2"/>
<polyline id="_173786856" class="st0" points="765,296 765,304.6 747,304.6 747,296 "/>
<polyline id="_188878816" class="st0" points="729,296 729,304.6 711,304.6 711,296 "/>
<line id="_240520216" class="st0" x1="729" y1="296" x2="734" y2="296"/>
<line id="_183679280" class="st0" x1="742" y1="296" x2="747" y2="296"/>
<line id="_247289008" class="st1" x1="742" y1="296" x2="734" y2="296"/>
<g id="g6807">
	<g id="_188985944">
		<g id="g219">
			<circle id="_255341416" class="st1" cx="533.6" cy="267.2" r="4"/>
			<circle id="_253110896" class="st1" cx="483.2" cy="267.2" r="4"/>
			<circle id="_187619104" class="st1" cx="533.6" cy="115.9" r="4"/>
			<circle id="_188380624" class="st1" cx="483.2" cy="115.9" r="4"/>
		</g>
		<polyline id="_185908856" class="st1" points="426.5,87.2 404,87.2 404,150.1 		"/>
		<line id="_80328040" class="st1" x1="573.2" y1="87.2" x2="444.9" y2="87.2"/>
		<line id="_250018064" class="st1" x1="612.8" y1="150.1" x2="612.8" y2="119.6"/>
		<polyline id="_244872448" class="st1" points="590.2,296 612.8,296 612.8,233 		"/>
		<line id="_80060568" class="st1" x1="444.9" y1="296" x2="571.8" y2="296"/>
		<polyline id="_178746200" class="st1" points="404,233 404,296 426.5,296 		"/>
		<polyline id="_79314896" class="st0" points="404,150.1 395.4,150.1 395.4,168.2 404,168.2 404,215 		"/>
		<polyline id="_176756384" class="st0" points="404,215 395.4,215 395.4,233 404,233 		"/>
		<polyline id="_182864912" class="st0" points="612.8,150.1 621.4,150.1 621.4,168.2 612.8,168.2 		"/>
		<polyline id="_243319896" class="st0" points="612.8,215 621.4,215 621.4,233 612.8,233 		"/>
		<path id="_179159280" inkscape:connector-curvature="0" class="st1" d="M573.2,87.2V116c0,2,1.6,3.6,3.6,3.6l28.8,0l7.2,0"/>
		<path id="_182099744" inkscape:connector-curvature="0" class="st1" d="M444.9,87.2v5.4 M426.5,87.2v3.6 M426.5,90.8v1.8v1.8
			c0,2,1.6,3.6,3.6,3.6h11.2c2,0,3.6-1.6,3.6-3.6v-1.8"/>
		<path id="_241113512" inkscape:connector-curvature="0" class="st1" d="M444.9,292.4v-1.8v-1.8c0-2-1.6-3.6-3.6-3.6h-11.2
			c-2,0-3.6,1.6-3.6,3.6v1.8"/>
		<line id="_244387808" class="st1" x1="444.9" y1="296" x2="444.9" y2="292.4"/>
		<line id="_189480152" class="st1" x1="426.5" y1="296" x2="426.5" y2="290.6"/>
		<path id="_188412904" inkscape:connector-curvature="0" class="st1" d="M590.2,292.4v-1.8v-1.8c0-2-1.6-3.6-3.6-3.6h-11.2
			c-2,0-3.6,1.6-3.6,3.6v1.8"/>
		<line id="_184256120" class="st1" x1="590.2" y1="296" x2="590.2" y2="292.4"/>
		<line id="_237208336" class="st1" x1="571.8" y1="296" x2="571.8" y2="290.6"/>
		<line id="_251014448" class="st1" x1="612.8" y1="168.2" x2="612.8" y2="215"/>
	</g>
</g>
<g id="g6780">
	<polyline id="polyline7" class="st1" points="389,312.2 389,193.4 151.4,193.4 151.4,312.2 	"/>
	<g id="_179278392">
		<path id="_189870192" inkscape:connector-curvature="0" class="st0" d="M161.3,257.2c-2.4,0-4.3-1.9-4.3-4.3s1.9-4.3,4.3-4.3
			c2.4,0,4.3,1.9,4.3,4.3S163.7,257.2,161.3,257.2z"/>
		<g id="g16">
			<g id="g12">
				<polyline id="_178724216" class="st0" points="165.8,279.8 156.8,279.8 156.8,261.8 165.8,261.8 				"/>
				<polyline id="_245583408" class="st0" points="165.8,243.8 156.8,243.8 156.8,225.8 165.8,225.8 				"/>
			</g>
			<line id="_244672392" class="st0" x1="165.8" y1="279.8" x2="165.8" y2="261.8"/>
			<line id="_179278416" class="st0" x1="165.8" y1="243.8" x2="165.8" y2="225.8"/>
		</g>
	</g>
	<g id="_242728496">
		<path id="_236978320" inkscape:connector-curvature="0" class="st0" d="M379.1,257.2c-2.4,0-4.3-1.9-4.3-4.3s1.9-4.3,4.3-4.3
			s4.3,1.9,4.3,4.3S381.5,257.2,379.1,257.2z"/>
		<g id="g26">
			<g id="g22">
				<polyline id="_187333264" class="st0" points="383.6,279.8 374.6,279.8 374.6,261.8 383.6,261.8 				"/>
				<polyline id="_174300240" class="st0" points="383.6,243.8 374.6,243.8 374.6,225.8 383.6,225.8 				"/>
			</g>
			<line id="_79646280" class="st0" x1="383.6" y1="279.8" x2="383.6" y2="261.8"/>
			<line id="_190269048" class="st0" x1="383.6" y1="243.8" x2="383.6" y2="225.8"/>
		</g>
	</g>
	<line id="line29" class="st1" x1="389" y1="312.2" x2="151.4" y2="312.2"/>
	<path id="path31" inkscape:connector-curvature="0" class="st0" d="M311.6,287v9.4h-18V287 M311.6,287h-18"/>
	<g id="_182142016">
		<path id="_185436984" inkscape:connector-curvature="0" class="st0" d="M273.4,203.3c0,2.4-1.9,4.3-4.3,4.3
			c-2.4,0-4.3-1.9-4.3-4.3s1.9-4.3,4.3-4.3C271.5,199,273.4,200.9,273.4,203.3z"/>
		<g id="g40">
			<g id="g36">
				<polyline id="_245765088" class="st0" points="296.1,198.8 296.1,207.8 278.1,207.8 278.1,198.8 				"/>
				<polyline id="_176753776" class="st0" points="260.1,198.8 260.1,207.8 242.1,207.8 242.1,198.8 				"/>
			</g>
			<line id="_184861672" class="st0" x1="296.1" y1="198.8" x2="278.1" y2="198.8"/>
			<line id="_233829576" class="st0" x1="260.1" y1="198.8" x2="242.1" y2="198.8"/>
		</g>
	</g>
	<path id="path241" inkscape:connector-curvature="0" class="st0" d="M246.8,287v9.4h-18V287 M246.8,287h-18"/>
</g>
<g id="g6750">
	<polyline id="polyline43" class="st1" points="389,186.2 389,67.4 151.4,67.4 151.4,186.2 	"/>
	<g id="_238608360">
		<circle id="_252497368" class="st0" cx="161.3" cy="126.8" r="4.3"/>
		<g id="g52">
			<g id="g48">
				<polyline id="_182501144" class="st0" points="165.8,153.8 156.8,153.8 156.8,135.8 165.8,135.8 				"/>
				<polyline id="_184132432" class="st0" points="165.8,117.8 156.8,117.8 156.8,99.8 165.8,99.8 				"/>
			</g>
			<line id="_78662448" class="st0" x1="165.8" y1="153.8" x2="165.8" y2="135.8"/>
			<line id="_185438704" class="st0" x1="165.8" y1="117.8" x2="165.8" y2="99.8"/>
		</g>
	</g>
	<g id="_236716424">
		<circle id="_185484504" class="st0" cx="379.1" cy="126.8" r="4.3"/>
		<g id="g62">
			<g id="g58">
				<polyline id="_185576680" class="st0" points="383.6,153.8 374.6,153.8 374.6,135.8 383.6,135.8 				"/>
				<polyline id="_186536936" class="st0" points="383.6,117.8 374.6,117.8 374.6,99.8 383.6,99.8 				"/>
			</g>
			<line id="_82574344" class="st0" x1="383.6" y1="153.8" x2="383.6" y2="135.8"/>
			<line id="_236568000" class="st0" x1="383.6" y1="117.8" x2="383.6" y2="99.8"/>
		</g>
	</g>
	<line id="line65" class="st1" x1="389" y1="186.2" x2="151.4" y2="186.2"/>
	<path id="path67" inkscape:connector-curvature="0" class="st0" d="M246.8,161v9.4h-18V161 M246.8,161h-18"/>
	<g id="_79710256">
		<circle id="_252497488" class="st3" cx="269.1" cy="77.3" r="4.3"/>
		<g id="g76">
			<g id="g72">
				<polyline id="_241194608" class="st0" points="296.1,72.8 296.1,81.8 278.1,81.8 278.1,72.8 				"/>
				<polyline id="_250404296" class="st0" points="260.1,72.8 260.1,81.8 242.1,81.8 242.1,72.8 				"/>
			</g>
			<line id="_179344720" class="st0" x1="296.1" y1="72.8" x2="278.1" y2="72.8"/>
			<line id="_182704248" class="st0" x1="260.1" y1="72.8" x2="242.1" y2="72.8"/>
		</g>
	</g>
	<path id="path79_1_" inkscape:connector-curvature="0" class="st1" d="M181.4,102.4V85.6c0-2.3,1.8-4.2,4-4.2h31.7
		c2.2,0,4,1.9,4,4.2v16.8c0,2.3-1.8,4.2-4,4.2h-31.7C183.2,106.6,181.4,104.7,181.4,102.4z"/>
	<path id="path243" inkscape:connector-curvature="0" class="st0" d="M311.6,161v9.4h-18V161 M311.6,161h-18"/>
</g>
</svg>
