<?xml version="1.0" encoding="UTF-8" standalone="no"?>
<svg
   xmlns:dc="http://purl.org/dc/elements/1.1/"
   xmlns:cc="http://creativecommons.org/ns#"
   xmlns:rdf="http://www.w3.org/1999/02/22-rdf-syntax-ns#"
   xmlns:svg="http://www.w3.org/2000/svg"
   xmlns="http://www.w3.org/2000/svg"
   xml:space="preserve"
   style="enable-background:new 0 0 1296 432;"
   viewBox="0 0 1296 432"
   y="0px"
   x="0px"
   id="svg246"
   version="1.1"><metadata
     id="metadata4910"><rdf:RDF><cc:Work
         rdf:about=""><dc:format>image/svg+xml</dc:format><dc:type
           rdf:resource="http://purl.org/dc/dcmitype/StillImage" /><dc:title></dc:title></cc:Work></rdf:RDF></metadata><defs
     id="defs4908" /><style
     id="style4708"
     type="text/css">
	.st0{fill:none;stroke:#000000;stroke-width:3.937010e-03;stroke-linecap:round;stroke-linejoin:round;}
	.st1{fill:none;stroke:#000000;stroke-width:3.937010e-03;}
	.st2{fill:none;stroke:#000000;stroke-width:6.959830e-03;}
	.st3{fill:none;stroke:#000000;stroke-width:1.052918e-02;stroke-linecap:round;stroke-linejoin:round;}
	.st4{fill:none;stroke:#000000;stroke-width:5.669291e-03;stroke-miterlimit:10;}
</style><g
     id="_175858024"><g
       id="g125"><g
         id="g88"><polyline
           points="979.2,261.3 965.6,261.3 965.6,256.1 957.5,256.1 957.5,261.3 950.7,261.3      950.7,269.3 957.5,269.3 957.5,274.5 965.6,274.5 965.6,269.3 979.2,269.3    "
           class="st0"
           id="_80153840" /><g
           id="g84"><polyline
             points="979.2,292.3 987.8,292.3 987.8,274.3 979.2,274.3     "
             class="st0"
             id="_236649952" /><polyline
             points="979.2,256.3 987.8,256.3 987.8,238.3 979.2,238.3     "
             class="st0"
             id="_242370400" /></g><line
           y2="261.3"
           x2="979.2"
           y1="256.3"
           x1="979.2"
           class="st0"
           id="_240519928" /><line
           y2="274.3"
           x2="979.2"
           y1="269.3"
           x1="979.2"
           class="st0"
           id="_233495296" /></g><g
         id="g97"><polyline
           points="979.2,113.9 965.6,113.9 965.6,108.6 957.5,108.6 957.5,113.9 950.7,113.9      950.7,121.8 957.5,121.8 957.5,127.1 965.6,127.1 965.6,121.8 979.2,121.8    "
           class="st0"
           id="_83883368" /><g
           id="g93"><polyline
             points="979.2,144.8 987.8,144.8 987.8,126.8 979.2,126.8     "
             class="st0"
             id="_178739248" /><polyline
             points="979.2,108.8 987.8,108.8 987.8,90.8 979.2,90.8     "
             class="st0"
             id="_81917456" /></g><line
           y2="113.9"
           x2="979.2"
           y1="108.8"
           x1="979.2"
           class="st0"
           id="_186171896" /><line
           y2="126.8"
           x2="979.2"
           y1="121.8"
           x1="979.2"
           class="st0"
           id="_189658704" /></g><line
         y2="292.3"
         x2="979.2"
         y1="297"
         x1="979.2"
         class="st1"
         id="_86581440" /><path
         d="M860.4,297h32.4 M910.8,297h5 M923.8,297h5 M946.8,297h32.4"
         class="st1"
         id="_175279920" /><line
         y2="297"
         x2="860.4"
         y1="86.1"
         x1="860.4"
         class="st1"
         id="_188121920" /><line
         y2="86.1"
         x2="979.2"
         y1="90.8"
         x1="979.2"
         class="st1"
         id="_82479048" /><line
         y2="144.8"
         x2="979.2"
         y1="238.3"
         x1="979.2"
         class="st1"
         id="_241652072" /><g
         id="g111"><polyline
           points="923.8,297 923.8,283.5 929,283.5 929,275.4 923.8,275.4 923.8,268.6 915.8,268.6      915.8,275.4 910.6,275.4 910.6,283.5 915.8,283.5 915.8,297    "
           class="st0"
           id="_176459600" /><g
           id="g107"><polyline
             points="892.8,297 892.8,305.6 910.8,305.6 910.8,297     "
             class="st0"
             id="_184000288" /><polyline
             points="928.8,297 928.8,305.6 946.8,305.6 946.8,297     "
             class="st0"
             id="_183088920" /></g><line
           y2="297"
           x2="923.8"
           y1="297"
           x1="928.8"
           class="st0"
           id="_79242456" /><line
           y2="297"
           x2="910.8"
           y1="297"
           x1="915.8"
           class="st0"
           id="_53031312" /></g><g
         id="g123"><path
           d="M979.2,86.1h-32.4 M928.8,86.1h-5 M915.8,86.1h-5 M892.8,86.1h-32.4"
           class="st1"
           id="_51699680" /><g
           id="g121"><polyline
             points="915.8,86.1 915.8,99.7 910.6,99.7 910.6,107.8 915.8,107.8 915.8,114.6       923.8,114.6 923.8,107.8 929,107.8 929,99.7 923.8,99.7 923.8,86.1     "
             class="st0"
             id="_186458792" /><g
             id="g117"><polyline
               points="946.8,86.1 946.8,77.5 928.8,77.5 928.8,86.1      "
               class="st0"
               id="_175126792" /><polyline
               points="910.8,86.1 910.8,77.5 892.8,77.5 892.8,86.1      "
               class="st0"
               id="_188839520" /></g><line
             y2="86.1"
             x2="915.8"
             y1="86.1"
             x1="910.8"
             class="st0"
             id="_51964096" /><line
             y2="86.1"
             x2="928.8"
             y1="86.1"
             x1="923.8"
             class="st0"
             id="_185815856" /></g></g></g><g
       id="g133"><g
         id="g129"><polyline
           points="865.8,164.6 874.8,164.6 874.8,182.6 865.8,182.6    "
           class="st0"
           id="_250735608" /><polyline
           points="865.8,200.6 874.8,200.6 874.8,218.6 865.8,218.6    "
           class="st0"
           id="_178324296" /></g><line
         y2="182.6"
         x2="865.8"
         y1="164.6"
         x1="865.8"
         class="st0"
         id="_51774216" /><line
         y2="218.6"
         x2="865.8"
         y1="200.6"
         x1="865.8"
         class="st0"
         id="_237625952" /></g></g><g
     id="_185833568"><g
       id="g180"><g
         id="g143"><polyline
           points="1117.4,261.3 1103.9,261.3 1103.9,256.1 1095.7,256.1 1095.7,261.3 1089,261.3      1089,269.3 1095.7,269.3 1095.7,274.5 1103.9,274.5 1103.9,269.3 1117.4,269.3    "
           class="st0"
           id="_185962584" /><g
           id="g139"><polyline
             points="1117.4,292.3 1126,292.3 1126,274.3 1117.4,274.3     "
             class="st0"
             id="_179026024" /><polyline
             points="1117.4,256.3 1126,256.3 1126,238.3 1117.4,238.3     "
             class="st0"
             id="_83546064" /></g><line
           y2="261.3"
           x2="1117.4"
           y1="256.3"
           x1="1117.4"
           class="st0"
           id="_184417168" /><line
           y2="274.3"
           x2="1117.4"
           y1="269.3"
           x1="1117.4"
           class="st0"
           id="_184270624" /></g><g
         id="g152"><polyline
           points="1117.4,113.9 1103.9,113.9 1103.9,108.6 1095.7,108.6 1095.7,113.9 1089,113.9      1089,121.8 1095.7,121.8 1095.7,127.1 1103.9,127.1 1103.9,121.8 1117.4,121.8    "
           class="st0"
           id="_252298712" /><g
           id="g148"><polyline
             points="1117.4,144.8 1126,144.8 1126,126.8 1117.4,126.8     "
             class="st0"
             id="_187613256" /><polyline
             points="1117.4,108.8 1126,108.8 1126,90.8 1117.4,90.8     "
             class="st0"
             id="_185230968" /></g><line
           y2="113.9"
           x2="1117.4"
           y1="108.8"
           x1="1117.4"
           class="st0"
           id="_252467160" /><line
           y2="126.8"
           x2="1117.4"
           y1="121.8"
           x1="1117.4"
           class="st0"
           id="_185962920" /></g><line
         y2="292.3"
         x2="1117.4"
         y1="297"
         x1="1117.4"
         class="st1"
         id="_183480264" /><path
         d="M998.6,297h32.4 M1049,297h5 M1062,297h5 M1085.1,297h32.4"
         class="st1"
         id="_250116752" /><line
         y2="297"
         x2="998.6"
         y1="86.1"
         x1="998.6"
         class="st1"
         id="_186133664" /><line
         y2="86.1"
         x2="1117.4"
         y1="90.8"
         x1="1117.4"
         class="st1"
         id="_238559072" /><line
         y2="144.8"
         x2="1117.4"
         y1="238.3"
         x1="1117.4"
         class="st1"
         id="_85469976" /><g
         id="g166"><polyline
           points="1062,297 1062,283.5 1067.3,283.5 1067.3,275.4 1062,275.4 1062,268.6      1054.1,268.6 1054.1,275.4 1048.8,275.4 1048.8,283.5 1054.1,283.5 1054.1,297    "
           class="st0"
           id="_188608680" /><g
           id="g162"><polyline
             points="1031,297 1031,305.6 1049,305.6 1049,297     "
             class="st0"
             id="_233774960" /><polyline
             points="1067,297 1067,305.6 1085.1,305.6 1085.1,297     "
             class="st0"
             id="_178606040" /></g><line
           y2="297"
           x2="1062"
           y1="297"
           x1="1067"
           class="st0"
           id="_190059776" /><line
           y2="297"
           x2="1049"
           y1="297"
           x1="1054.1"
           class="st0"
           id="_175103088" /></g><g
         id="g178"><path
           d="M1117.4,86.1H1085 M1067,86.1h-5 M1054.1,86.1h-5 M1031,86.1h-32.4"
           class="st1"
           id="_84431544" /><g
           id="g176"><polyline
             points="1054.1,86.1 1054.1,99.7 1048.8,99.7 1048.8,107.8 1054.1,107.8 1054.1,114.6       1062,114.6 1062,107.8 1067.2,107.8 1067.2,99.7 1062,99.7 1062,86.1     "
             class="st0"
             id="_78858384" /><g
             id="g172"><polyline
               points="1085.1,86.1 1085.1,77.5 1067,77.5 1067,86.1      "
               class="st0"
               id="_79783720" /><polyline
               points="1049,86.1 1049,77.5 1031,77.5 1031,86.1      "
               class="st0"
               id="_239974736" /></g><line
             y2="86.1"
             x2="1054.1"
             y1="86.1"
             x1="1049"
             class="st0"
             id="_188873624" /><line
             y2="86.1"
             x2="1067"
             y1="86.1"
             x1="1062"
             class="st0"
             id="_80162024" /></g></g></g><g
       id="g188"><g
         id="g184"><polyline
           points="1004,164.6 1013,164.6 1013,182.6 1004,182.6    "
           class="st0"
           id="_182999104" /><polyline
           points="1004,200.6 1013,200.6 1013,218.6 1004,218.6    "
           class="st0"
           id="_178638904" /></g><line
         y2="182.6"
         x2="1004"
         y1="164.6"
         x1="1004"
         class="st0"
         id="_82153432" /><line
         y2="218.6"
         x2="1004"
         y1="200.6"
         x1="1004"
         class="st0"
         id="_188985752" /></g></g><path
     d="M633.6,195.6v5 M633.6,218.6V296H711 M729,296h18 M765,296h77.4v-77.4 M842.4,200.6v-5   M842.4,187.6v-5 M842.4,164.5V87.2H765 M747,87.2h-18 M711,87.2h-77.4v77.4 M633.6,182.6v5"
     class="st1"
     id="_247861712" /><polyline
     points="633.6,195.6 647.1,195.6 647.1,200.8 655.3,200.8 655.3,195.6 662,195.6 662,187.6   655.3,187.6 655.3,182.4 647.1,182.4 647.1,187.6 633.6,187.6 "
     class="st0"
     id="_237901128" /><g
     id="g195"><polyline
       points="633.6,164.5 625,164.5 625,182.6 633.6,182.6  "
       class="st0"
       id="_53804992" /><polyline
       points="633.6,200.6 625,200.6 625,218.6 633.6,218.6  "
       class="st0"
       id="_241174456" /></g><polyline
     points="842.4,195.6 828.8,195.6 828.8,200.8 820.7,200.8 820.7,195.6 813.9,195.6   813.9,187.6 820.7,187.6 820.7,182.4 828.8,182.4 828.8,187.6 842.4,187.6 "
     class="st0"
     id="_186502496" /><g
     id="g200"><polyline
       points="842.4,164.5 851,164.5 851,182.6 842.4,182.6  "
       class="st0"
       id="_183738552" /><polyline
       points="842.4,200.6 851,200.6 851,218.6 842.4,218.6  "
       class="st0"
       id="_185783816" /></g><circle
     r="3.6"
     cy="228.8"
     cx="641.6"
     class="st2"
     id="_244672992" /><polyline
     points="711,87.2 711,78.6 729,78.6 729,87.2 "
     class="st0"
     id="_178667952" /><polyline
     points="747,87.2 747,78.6 765,78.6 765,87.2 "
     class="st0"
     id="_247356128" /><line
     y2="87.2"
     x2="742"
     y1="87.2"
     x1="747"
     class="st0"
     id="_86424136" /><line
     y2="87.2"
     x2="729"
     y1="87.2"
     x1="734"
     class="st0"
     id="_237210488" /><line
     y2="87.2"
     x2="742"
     y1="87.2"
     x1="734"
     class="st1"
     id="_179102432" /><polyline
     points="765,296 765,304.6 747,304.6 747,296 "
     class="st0"
     id="_173786856" /><polyline
     points="729,296 729,304.6 711,304.6 711,296 "
     class="st0"
     id="_188878816" /><line
     y2="296"
     x2="734"
     y1="296"
     x1="729"
     class="st0"
     id="_240520216" /><line
     y2="296"
     x2="747"
     y1="296"
     x1="742"
     class="st0"
     id="_183679280" /><line
     y2="296"
     x2="734"
     y1="296"
     x1="742"
     class="st1"
     id="_247289008" /><g
     id="g6807"><g
       id="_188985944"><g
         id="g219"><circle
           r="4"
           cy="267.2"
           cx="533.6"
           class="st1"
           id="_255341416" /><circle
           r="4"
           cy="267.2"
           cx="483.2"
           class="st1"
           id="_253110896" /><circle
           r="4"
           cy="115.9"
           cx="533.6"
           class="st1"
           id="_187619104" /><circle
           r="4"
           cy="115.9"
           cx="483.2"
           class="st1"
           id="_188380624" /></g><polyline
         points="426.5,87.2 404,87.2 404,150.1   "
         class="st1"
         id="_185908856" /><line
         y2="87.2"
         x2="444.9"
         y1="87.2"
         x1="573.2"
         class="st1"
         id="_80328040" /><line
         y2="119.6"
         x2="612.8"
         y1="150.1"
         x1="612.8"
         class="st1"
         id="_250018064" /><polyline
         points="590.2,296 612.8,296 612.8,233   "
         class="st1"
         id="_244872448" /><line
         y2="296"
         x2="571.8"
         y1="296"
         x1="444.9"
         class="st1"
         id="_80060568" /><polyline
         points="404,233 404,296 426.5,296   "
         class="st1"
         id="_178746200" /><polyline
         points="404,150.1 395.4,150.1 395.4,168.2 404,168.2 404,215   "
         class="st0"
         id="_79314896" /><polyline
         points="404,215 395.4,215 395.4,233 404,233   "
         class="st0"
         id="_176756384" /><polyline
         points="612.8,150.1 621.4,150.1 621.4,168.2 612.8,168.2   "
         class="st0"
         id="_182864912" /><polyline
         points="612.8,215 621.4,215 621.4,233 612.8,233   "
         class="st0"
         id="_243319896" /><path
         d="M573.2,87.2V116c0,2,1.6,3.6,3.6,3.6h28.8h7.2"
         class="st1"
         id="_179159280" /><path
         d="M444.9,87.2v5.4 M426.5,87.2v3.6 M426.5,90.8v1.8v1.8c0,2,1.6,3.6,3.6,3.6h11.2    c2,0,3.6-1.6,3.6-3.6v-1.8"
         class="st1"
         id="_182099744" /><path
         d="M444.9,292.4v-1.8v-1.8c0-2-1.6-3.6-3.6-3.6h-11.2c-2,0-3.6,1.6-3.6,3.6v1.8"
         class="st1"
         id="_241113512" /><line
         y2="292.4"
         x2="444.9"
         y1="296"
         x1="444.9"
         class="st1"
         id="_244387808" /><line
         y2="290.6"
         x2="426.5"
         y1="296"
         x1="426.5"
         class="st1"
         id="_189480152" /><path
         d="M590.2,292.4v-1.8v-1.8c0-2-1.6-3.6-3.6-3.6h-11.2c-2,0-3.6,1.6-3.6,3.6v1.8"
         class="st1"
         id="_188412904" /><line
         y2="292.4"
         x2="590.2"
         y1="296"
         x1="590.2"
         class="st1"
         id="_184256120" /><line
         y2="290.6"
         x2="571.8"
         y1="296"
         x1="571.8"
         class="st1"
         id="_237208336" /><line
         y2="215"
         x2="612.8"
         y1="168.2"
         x1="612.8"
         class="st1"
         id="_251014448" /></g></g><g
     id="g6780"><polyline
       points="389,312.2 389,193.4 151.4,193.4 151.4,312.2  "
       class="st1"
       id="polyline7" /><g
       id="_179278392"><path
         d="M161.3,257.2c-2.4,0-4.3-1.9-4.3-4.3s1.9-4.3,4.3-4.3c2.4,0,4.3,1.9,4.3,4.3    S163.7,257.2,161.3,257.2z"
         class="st0"
         id="_189870192" /><g
         id="g16"><g
           id="g12"><polyline
             points="165.8,279.8 156.8,279.8 156.8,261.8 165.8,261.8     "
             class="st0"
             id="_178724216" /><polyline
             points="165.8,243.8 156.8,243.8 156.8,225.8 165.8,225.8     "
             class="st0"
             id="_245583408" /></g><line
           y2="261.8"
           x2="165.8"
           y1="279.8"
           x1="165.8"
           class="st0"
           id="_244672392" /><line
           y2="225.8"
           x2="165.8"
           y1="243.8"
           x1="165.8"
           class="st0"
           id="_179278416" /></g></g><g
       id="_242728496"><path
         d="M379.1,257.2c-2.4,0-4.3-1.9-4.3-4.3s1.9-4.3,4.3-4.3s4.3,1.9,4.3,4.3    S381.5,257.2,379.1,257.2z"
         class="st0"
         id="_236978320" /><g
         id="g26"><g
           id="g22"><polyline
             points="383.6,279.8 374.6,279.8 374.6,261.8 383.6,261.8     "
             class="st0"
             id="_187333264" /><polyline
             points="383.6,243.8 374.6,243.8 374.6,225.8 383.6,225.8     "
             class="st0"
             id="_174300240" /></g><line
           y2="261.8"
           x2="383.6"
           y1="279.8"
           x1="383.6"
           class="st0"
           id="_79646280" /><line
           y2="225.8"
           x2="383.6"
           y1="243.8"
           x1="383.6"
           class="st0"
           id="_190269048" /></g></g><line
       y2="312.2"
       x2="151.4"
       y1="312.2"
       x1="389"
       class="st1"
       id="line29" /><path
       d="M311.6,287v9.4h-18V287 M311.6,287h-18"
       class="st0"
       id="path31" /><g
       id="_182142016"><path
         d="M273.4,203.3c0,2.4-1.9,4.3-4.3,4.3s-4.3-1.9-4.3-4.3s1.9-4.3,4.3-4.3    S273.4,200.9,273.4,203.3z"
         class="st0"
         id="_185436984" /><g
         id="g40"><g
           id="g36"><polyline
             points="296.1,198.8 296.1,207.8 278.1,207.8 278.1,198.8     "
             class="st0"
             id="_245765088" /><polyline
             points="260.1,198.8 260.1,207.8 242.1,207.8 242.1,198.8     "
             class="st0"
             id="_176753776" /></g><line
           y2="198.8"
           x2="278.1"
           y1="198.8"
           x1="296.1"
           class="st0"
           id="_184861672" /><line
           y2="198.8"
           x2="242.1"
           y1="198.8"
           x1="260.1"
           class="st0"
           id="_233829576" /></g></g><path
       d="M246.8,287v9.4h-18V287 M246.8,287h-18"
       class="st0"
       id="path241" /></g><g
     id="g6750"><polyline
       points="389,186.2 389,67.4 151.4,67.4 151.4,186.2  "
       class="st1"
       id="polyline43" /><g
       id="_238608360"><circle
         r="4.3"
         cy="126.8"
         cx="161.3"
         class="st0"
         id="_252497368" /><g
         id="g52"><g
           id="g48"><polyline
             points="165.8,153.8 156.8,153.8 156.8,135.8 165.8,135.8     "
             class="st0"
             id="_182501144" /><polyline
             points="165.8,117.8 156.8,117.8 156.8,99.8 165.8,99.8     "
             class="st0"
             id="_184132432" /></g><line
           y2="135.8"
           x2="165.8"
           y1="153.8"
           x1="165.8"
           class="st0"
           id="_78662448" /><line
           y2="99.8"
           x2="165.8"
           y1="117.8"
           x1="165.8"
           class="st0"
           id="_185438704" /></g></g><g
       id="_236716424"><circle
         r="4.3"
         cy="126.8"
         cx="379.1"
         class="st0"
         id="_185484504" /><g
         id="g62"><g
           id="g58"><polyline
             points="383.6,153.8 374.6,153.8 374.6,135.8 383.6,135.8     "
             class="st0"
             id="_185576680" /><polyline
             points="383.6,117.8 374.6,117.8 374.6,99.8 383.6,99.8     "
             class="st0"
             id="_186536936" /></g><line
           y2="135.8"
           x2="383.6"
           y1="153.8"
           x1="383.6"
           class="st0"
           id="_82574344" /><line
           y2="99.8"
           x2="383.6"
           y1="117.8"
           x1="383.6"
           class="st0"
           id="_236568000" /></g></g><line
       y2="186.2"
       x2="151.4"
       y1="186.2"
       x1="389"
       class="st1"
       id="line65" /><path
       d="M246.8,161v9.4h-18V161 M246.8,161h-18"
       class="st0"
       id="path67" /><g
       id="_79710256"><circle
         r="4.3"
         cy="77.3"
         cx="269.1"
         class="st3"
         id="_252497488" /><g
         id="g76"><g
           id="g72"><polyline
             points="296.1,72.8 296.1,81.8 278.1,81.8 278.1,72.8     "
             class="st0"
             id="_241194608" /><polyline
             points="260.1,72.8 260.1,81.8 242.1,81.8 242.1,72.8     "
             class="st0"
             id="_250404296" /></g><line
           y2="72.8"
           x2="278.1"
           y1="72.8"
           x1="296.1"
           class="st0"
           id="_179344720" /><line
           y2="72.8"
           x2="242.1"
           y1="72.8"
           x1="260.1"
           class="st0"
           id="_182704248" /></g></g><path
       d="M180.4,102.4V85.6c0-2.3,2.1-4.2,4.6-4.2h36.6c2.5,0,4.6,1.9,4.6,4.2v16.8   c0,2.3-2.1,4.2-4.6,4.2h-36.6C182.5,106.6,180.4,104.7,180.4,102.4z"
       class="st1"
       id="path79_1_" /><path
       d="M311.6,161v9.4h-18V161 M311.6,161h-18"
       class="st0"
       id="path243" /></g><path
     d="M645.2,96.7v1.8c0,2-1.6,3.6-3.6,3.6s-3.6-1.6-3.6-3.6v-1.8c0-2,1.6-3.6,3.6-3.6  C643.6,93.1,645.2,94.7,645.2,96.7z"
     class="st4"
     id="path1216" /><path
     d="M645.2,148v1.8c0,2-1.6,3.6-3.6,3.6s-3.6-1.6-3.6-3.6V148c0-2,1.6-3.6,3.6-3.6  C643.6,144.4,645.2,146,645.2,148z"
     class="st4"
     id="path1218" /><path
     d="M774.8,98.5c0,2-1.6,3.6-3.6,3.6s-3.6-1.6-3.6-3.6c0-0.3,0-0.5,0.1-0.8l0.3-1.4l0.1-0.3  c0.4-1.3,1.6-2.3,3.1-2.3s2.8,1.1,3.2,2.5v0.1l0.3,1.1v0.1l0.1,0.3C774.8,98.1,774.8,98.3,774.8,98.5z"
     class="st4"
     id="path1220" /><path
     d="M767.6,148.3c0-2,1.6-3.6,3.6-3.6s3.6,1.6,3.6,3.6c0,0.3,0,0.5-0.1,0.8l-0.3,1.4l-0.1,0.3  c-0.4,1.3-1.6,2.3-3.1,2.3s-2.8-1.1-3.2-2.5v-0.1l-0.3-1.1v-0.1l-0.1-0.3C767.6,148.7,767.6,148.5,767.6,148.3z"
     class="st4"
     id="path1222" /></svg>